<?xml version="1.0" standalone="no"?>
<!DOCTYPE svg PUBLIC "-//W3C//DTD SVG 20010904//EN"
 "http://www.w3.org/TR/2001/REC-SVG-20010904/DTD/svg10.dtd">
<svg version="1.0" xmlns="http://www.w3.org/2000/svg"
 width="1280.000000pt" height="899.000000pt" viewBox="0 0 1280.000000 899.000000"
 preserveAspectRatio="xMidYMid meet">
<metadata>
Created by potrace 1.15, written by Peter Selinger 2001-2017
</metadata>
<g transform="translate(0.000000,899.000000) scale(0.100000,-0.100000)"
fill="#000000" stroke="none">
<path d="M4172 8970 c-18 -11 -37 -31 -43 -44 -16 -34 -3 -88 26 -116 38 -35
48 -81 40 -174 -20 -238 -89 -385 -277 -592 -46 -51 -120 -133 -165 -183 -46
-50 -83 -96 -83 -101 0 -14 48 -34 131 -56 35 -10 68 -21 72 -25 12 -10 -39
-196 -66 -241 -12 -20 -86 -103 -165 -183 -137 -139 -163 -176 -106 -155 37
15 37 15 30 -50 l-7 -60 40 6 c41 6 41 6 41 -25 0 -17 -12 -50 -26 -72 -14
-23 -40 -76 -58 -118 -40 -94 -66 -133 -189 -281 -102 -122 -125 -156 -113
-167 4 -4 39 -7 78 -8 l72 0 10 -33 c12 -43 44 -51 89 -23 51 31 147 23 147
-13 0 -22 -47 -55 -89 -62 -74 -13 -212 -119 -245 -189 -31 -65 13 -76 70 -19
42 41 53 37 69 -29 14 -53 47 -62 85 -22 26 28 79 33 118 12 23 -13 22 -13
-27 -55 -45 -39 -49 -45 -44 -76 5 -31 3 -34 -29 -45 -19 -6 -46 -23 -58 -36
-14 -14 -34 -25 -49 -25 l-26 1 28 20 c29 22 36 49 13 49 -7 0 -19 -7 -26 -15
-7 -8 -17 -15 -22 -15 -5 0 7 21 27 46 60 80 50 82 -68 14 -48 -27 -90 -50
-94 -50 -4 0 11 19 34 43 63 65 82 113 34 87 -29 -15 -184 -145 -254 -213 -53
-51 -68 -85 -33 -71 7 3 92 8 188 12 l176 7 94 47 c89 44 105 57 234 191 76
79 148 161 159 183 11 21 28 51 38 67 24 36 19 71 -11 75 -32 5 -37 25 -18 72
19 49 20 50 2 50 -8 0 -44 -33 -81 -74 -36 -41 -78 -78 -93 -83 -34 -12 -78
-1 -74 18 7 29 93 158 133 197 57 57 76 62 106 23 13 -17 31 -31 40 -31 8 0
32 18 53 39 22 22 52 42 69 46 63 14 140 130 149 226 3 33 9 49 18 49 15 0 65
-73 108 -158 30 -59 91 -132 111 -132 7 0 36 -26 64 -57 45 -52 52 -57 71 -45
29 18 49 15 82 -13 16 -14 42 -25 57 -25 57 0 181 -111 181 -162 0 -25 -12
-23 -40 7 -14 15 -35 25 -52 25 -19 0 -37 10 -55 31 l-28 31 -11 -54 -10 -53
-27 51 c-33 64 -76 116 -89 108 -6 -4 -8 -25 -4 -50 10 -77 -18 -69 -87 26
-51 70 -108 130 -123 130 -7 0 -26 -37 -42 -82 -17 -46 -32 -76 -35 -68 -3 8
-15 53 -27 100 -11 47 -26 99 -33 115 l-12 30 -6 -30 c-4 -16 -7 -57 -8 -90
-1 -67 -17 -135 -31 -135 -11 0 -30 65 -30 103 0 44 -17 67 -50 67 -37 0 -60
-32 -60 -82 0 -47 13 -55 48 -28 23 19 27 20 30 6 5 -24 -35 -74 -77 -96 -49
-24 -68 -55 -77 -121 -8 -60 -12 -65 -176 -212 -79 -70 -86 -80 -75 -98 15
-25 8 -31 -225 -186 -98 -65 -178 -123 -178 -129 0 -5 6 -18 13 -29 13 -17 21
-15 138 47 68 36 135 69 149 72 25 7 25 7 -4 -17 -53 -46 -436 -249 -563 -300
-34 -13 -43 -22 -43 -41 0 -13 8 -33 18 -44 17 -20 18 -20 175 54 87 40 157
68 154 61 -2 -7 -57 -41 -123 -76 -65 -34 -130 -69 -144 -77 -14 -8 -28 -14
-32 -14 -4 0 -69 -26 -145 -58 -76 -33 -150 -62 -166 -66 l-27 -6 20 -40 c11
-22 22 -40 24 -40 2 0 33 11 70 25 36 14 96 36 132 50 136 51 37 -6 -287 -166
-181 -90 -329 -169 -329 -176 0 -19 22 -63 32 -63 5 0 59 25 119 56 60 31 112
54 115 51 10 -10 -73 -64 -235 -154 -129 -71 -347 -198 -359 -208 -5 -5 27
-63 38 -70 6 -3 22 2 38 13 38 26 192 108 220 117 37 11 25 -10 -21 -35 -145
-79 -497 -297 -497 -307 0 -7 9 -38 21 -68 l21 -57 268 4 269 3 33 38 c33 37
98 63 98 38 0 -6 -7 -11 -15 -11 -21 0 -73 -75 -81 -115 -8 -43 12 -84 53
-110 43 -27 45 -72 5 -102 -35 -26 -62 -80 -62 -123 0 -24 10 -42 40 -72 48
-48 50 -67 10 -96 -33 -25 -54 -86 -44 -129 7 -32 51 -83 71 -83 23 0 16 -58
-9 -71 -51 -26 -68 -51 -68 -99 0 -52 27 -92 75 -110 22 -9 24 -13 15 -31 -7
-11 -9 -27 -6 -35 3 -9 -12 -31 -39 -58 -51 -49 -59 -88 -26 -142 17 -28 73
-64 100 -64 7 0 5 -10 -5 -25 -9 -14 -14 -32 -10 -40 3 -10 -5 -20 -24 -30
-43 -22 -73 -71 -73 -119 0 -54 24 -91 76 -112 39 -16 42 -20 39 -49 -3 -23
-12 -36 -40 -50 -51 -29 -77 -68 -77 -120 0 -54 25 -91 86 -125 39 -22 44 -29
41 -56 -3 -26 -11 -34 -55 -55 -44 -20 -54 -30 -65 -63 -23 -72 15 -132 99
-158 22 -6 39 -16 39 -23 0 -6 13 -24 30 -40 23 -22 41 -29 83 -33 34 -3 63 1
78 9 29 16 45 14 179 -17 116 -27 276 -61 445 -94 138 -27 247 -57 656 -180
179 -54 384 -113 455 -130 71 -17 219 -58 329 -91 109 -33 271 -78 360 -99
271 -67 330 -91 379 -154 29 -38 78 -58 190 -77 86 -15 165 -7 297 27 99 25
115 27 339 26 266 -1 337 -9 442 -53 40 -17 100 -42 133 -56 33 -14 101 -32
150 -40 50 -8 122 -23 160 -34 106 -30 244 -49 406 -56 172 -7 157 -20 152
132 -4 92 -2 103 19 135 l23 35 5 -90 c4 -78 9 -97 37 -145 30 -51 37 -57 98
-78 l65 -24 0 -154 0 -154 -32 14 c-18 8 -54 23 -79 35 l-47 21 -7 145 c-5
103 -11 148 -21 156 -12 10 -14 -15 -14 -158 l0 -168 96 -48 96 -48 76 22
c130 36 122 26 123 148 1 58 4 230 8 381 l6 274 78 19 77 19 0 45 c0 38 -3 44
-18 39 -98 -29 -253 -66 -277 -66 -17 0 -105 14 -195 30 -91 17 -251 44 -357
60 -105 17 -296 50 -425 74 -192 37 -1037 166 -1085 166 -10 0 -12 -7 -7 -22
3 -13 7 -24 9 -26 1 -1 87 -15 191 -31 104 -16 348 -57 543 -91 308 -53 479
-81 1096 -181 66 -10 124 -19 128 -19 4 0 7 -22 6 -50 -2 -27 -5 -50 -8 -50
-15 0 -223 38 -601 110 -656 125 -748 141 -1220 217 -124 19 -226 36 -227 37
-1 1 -5 34 -9 73 l-7 71 39 11 c56 14 344 77 445 97 107 20 114 24 105 60 -19
74 -148 142 -216 114 -40 -17 -84 -68 -105 -124 -10 -25 -19 -46 -21 -46 -18
0 -168 24 -196 31 -59 15 -52 43 19 74 31 14 82 45 113 68 l55 42 103 -2 102
-3 0 44 c0 41 3 46 50 80 27 19 57 47 66 61 22 34 29 108 14 144 -17 41 -97
81 -163 81 -63 0 -98 -25 -139 -96 -28 -51 -32 -54 -62 -50 -17 3 -58 8 -91
11 -33 3 -75 9 -93 12 -32 5 -33 6 -15 25 10 11 64 54 120 94 l102 75 105 -14
c59 -7 108 -11 111 -9 3 3 5 24 5 46 0 37 4 43 37 61 100 54 137 209 66 279
-59 59 -169 54 -243 -12 -35 -31 -43 -45 -47 -85 l-6 -48 -106 7 c-193 12
-229 27 -149 58 46 19 152 122 141 139 -5 8 -108 3 -159 -9 -16 -4 -23 2 -36
34 -9 22 -28 48 -42 57 -29 19 -51 11 -25 -8 64 -48 47 -167 -30 -206 -104
-54 -261 15 -261 115 0 19 -4 34 -9 34 -37 0 -45 -100 -12 -155 12 -21 21 -39
19 -40 -7 -6 -507 36 -1048 90 -190 18 -385 37 -435 40 -49 4 -214 17 -365 30
-151 13 -340 29 -420 35 -80 6 -208 17 -285 25 -77 8 -167 18 -199 21 l-59 6
32 25 c38 30 61 72 61 113 0 17 5 30 13 30 7 0 113 -9 237 -20 223 -19 492
-37 1270 -85 223 -14 502 -34 620 -46 299 -28 444 -39 521 -39 60 0 67 2 77
24 26 57 92 76 272 77 141 1 177 -11 241 -82 l45 -51 137 -4 c116 -3 137 -1
137 11 0 9 18 22 40 31 65 26 90 64 90 136 0 50 -5 67 -25 94 -32 41 -100 68
-158 62 -55 -6 -120 -48 -136 -86 -14 -33 4 -32 -209 -16 l-73 6 68 49 c37 26
81 59 97 73 l29 24 -34 10 c-21 5 -64 5 -113 -1 -72 -9 -80 -8 -89 9 -19 34
-78 84 -100 84 -19 0 -16 -5 20 -38 23 -21 45 -51 49 -66 11 -45 -3 -98 -34
-129 -88 -87 -272 -20 -272 100 l0 27 -22 -22 c-29 -29 -27 -79 5 -137 l26
-45 -43 0 c-59 0 -413 25 -846 60 -338 27 -563 42 -1055 70 -204 11 -838 60
-843 65 -2 2 8 20 22 42 13 21 28 51 32 66 3 16 13 31 20 34 7 3 136 -2 286
-11 150 -8 399 -18 553 -21 154 -4 375 -13 490 -20 244 -17 644 -32 1072 -41
l302 -6 31 35 c45 52 81 60 234 55 138 -5 175 -14 247 -64 57 -39 136 -61 242
-67 l97 -5 0 39 c0 34 4 41 28 49 79 29 112 74 112 155 0 107 -71 170 -183
162 -51 -3 -62 -8 -94 -39 -31 -31 -37 -45 -41 -93 l-5 -56 -141 7 c-77 3
-143 8 -145 10 -9 8 24 34 77 61 31 15 78 49 103 75 35 36 55 49 87 54 23 4
42 10 42 15 0 17 -48 20 -194 10 l-149 -10 -39 34 c-21 19 -47 35 -58 35 -18
0 -18 -2 5 -36 62 -92 -8 -234 -115 -234 -70 0 -140 75 -140 149 0 28 -2 31
-20 21 -34 -18 -44 -48 -31 -92 7 -21 21 -44 31 -51 11 -6 20 -15 20 -18 0 -4
-48 -7 -107 -8 -101 -2 -110 -4 -135 -28 -14 -14 -24 -31 -22 -38 3 -8 -12
-15 -45 -22 l-49 -10 -4 29 c-6 35 -3 38 42 38 55 0 60 11 60 132 l0 108 133
0 132 1 20 31 c41 64 58 70 211 71 115 0 160 -5 261 -27 132 -29 183 -46 203
-70 9 -12 31 -16 81 -16 l69 0 0 38 c0 32 4 39 30 50 77 34 102 153 48 225
-35 45 -109 65 -181 46 -41 -10 -48 -16 -74 -65 l-28 -54 -107 0 c-68 0 -108
4 -108 10 0 49 62 119 125 140 62 21 38 30 -77 30 l-113 0 -28 35 c-21 26 -36
35 -57 35 -37 0 -37 -5 -1 -36 16 -14 35 -40 41 -59 9 -29 8 -40 -12 -81 -28
-59 -62 -85 -121 -91 -95 -11 -177 49 -177 130 0 51 25 103 63 131 22 17 50
21 160 27 204 12 331 -15 373 -78 15 -24 19 -24 130 -21 l114 3 0 49 c0 37 6
55 25 78 51 60 57 148 13 203 -24 30 -90 64 -126 65 -53 0 -134 -62 -152 -115
-10 -32 -11 -32 -92 -38 -45 -4 -86 -3 -91 2 -15 15 3 70 34 100 16 16 53 39
82 51 l52 21 -116 -5 -116 -5 -33 44 c-30 40 -38 45 -74 45 l-41 0 33 -20 c66
-41 93 -140 57 -210 -31 -60 -134 -87 -209 -56 -71 30 -104 133 -66 210 35 73
88 99 220 107 58 3 132 2 165 -2 78 -9 174 -46 205 -78 24 -25 29 -26 128 -23
l102 3 0 27 c0 25 3 28 33 25 17 -2 286 -15 597 -28 310 -14 565 -27 566 -28
1 -1 5 -12 9 -25 l7 -24 -89 6 c-48 4 -275 15 -503 26 -228 11 -454 23 -502
26 l-88 6 0 -27 c0 -17 9 -34 25 -47 39 -30 57 -75 58 -144 l2 -63 40 -5 c59
-8 587 -25 998 -32 l357 -7 0 126 0 127 -69 0 c-125 0 -190 11 -197 32 -3 11
-4 21 -2 24 4 3 785 -37 1278 -66 91 -5 257 -14 370 -20 556 -29 938 -50 968
-55 21 -4 32 -12 32 -23 0 -16 -13 -16 -170 -7 l-170 10 0 -101 0 -101 203 -6
c111 -4 320 -10 465 -13 l262 -7 0 91 0 90 -92 6 c-51 3 -167 8 -257 12 -162
6 -211 14 -211 34 0 16 -79 20 1330 -55 267 -14 603 -31 748 -38 l262 -12 0
25 c-1 44 -18 104 -35 116 -9 7 -53 17 -98 23 -45 7 -107 20 -137 31 -76 25
-294 57 -485 70 -87 6 -163 13 -167 16 -15 9 -171 24 -352 34 -168 8 -195 12
-255 36 -49 20 -101 31 -206 41 -102 11 -143 19 -152 30 -7 10 -70 28 -165 47
-128 27 -155 36 -162 53 -11 23 -60 39 -230 73 -80 16 -104 25 -120 45 -14 18
-47 33 -108 52 -48 14 -88 31 -88 37 0 6 -25 25 -55 42 l-55 30 -3 234 c-3
220 -4 238 -26 283 -16 34 -26 85 -35 170 -8 68 -20 135 -29 152 -9 17 -19 52
-23 79 -4 36 -13 55 -31 70 -55 45 -82 78 -99 122 -15 38 -15 50 -4 84 13 40
11 59 -14 127 -9 23 -20 87 -25 142 -10 102 -18 129 -55 169 -29 33 -49 42
-112 52 -35 6 -70 20 -100 42 -44 31 -51 33 -133 33 -64 0 -109 -7 -178 -28
-152 -45 -260 -87 -286 -111 -30 -28 -33 -59 -45 -389 -5 -148 -11 -220 -19
-225 -27 -17 -83 -187 -83 -253 0 -19 -4 -39 -8 -45 -8 -13 -992 134 -1028
154 -60 32 -196 235 -177 264 3 7 32 8 75 5 56 -5 69 -3 66 8 -2 7 -45 65 -96
128 -167 203 -261 344 -247 368 4 6 24 7 51 3 41 -6 44 -5 44 16 0 13 -22 71
-49 130 -27 59 -56 128 -65 154 -9 26 -36 82 -61 125 -25 43 -45 82 -45 88 0
21 61 66 97 72 35 6 38 9 41 43 4 52 -20 93 -100 167 -116 108 -190 233 -207
352 -11 79 -24 106 -86 178 -117 137 -143 278 -84 470 17 56 29 105 25 108 -3
3 -25 1 -48 -6 -56 -17 -154 -117 -190 -193 -15 -31 -41 -99 -59 -150 -32 -97
-44 -121 -84 -177 -14 -19 -25 -44 -25 -56 0 -36 -117 -257 -161 -304 -40 -42
-69 -95 -69 -126 0 -10 10 -15 33 -15 48 0 104 -18 111 -36 7 -19 -21 -68 -58
-103 -14 -13 -37 -54 -51 -90 -17 -44 -50 -98 -101 -161 -99 -123 -112 -154
-71 -169 117 -46 128 -59 87 -111 -11 -15 -20 -41 -20 -63 0 -55 -21 -88 -134
-211 -174 -191 -188 -207 -183 -213 3 -3 54 3 112 12 59 9 108 15 110 13 2 -2
-21 -33 -51 -70 -33 -41 -69 -73 -94 -85 -22 -10 -42 -25 -45 -35 -3 -9 -12
-18 -19 -21 -21 -8 -139 29 -269 84 -99 43 -134 53 -195 57 -69 4 -77 7 -109
40 -48 48 -113 150 -113 177 0 35 24 47 107 54 42 3 78 11 80 17 2 6 -27 47
-65 92 -136 162 -267 366 -278 434 -7 43 -6 44 119 53 90 7 106 17 70 46 -49
41 -164 185 -173 218 -5 20 -30 59 -55 86 -25 28 -50 66 -56 85 -17 52 -78
166 -99 185 -10 9 -24 14 -31 10 -19 -12 -4 -140 25 -221 54 -150 14 -139 -79
21 -40 68 -46 75 -41 45 3 -19 8 -78 11 -130 l6 -95 -24 29 c-37 43 -47 91
-47 230 0 69 -4 126 -9 126 -12 0 -21 -36 -21 -86 0 -81 -65 -278 -99 -298 -5
-3 -12 10 -15 29 -8 39 -29 46 -46 16 -5 -11 -10 -44 -10 -73 0 -57 -18 -96
-39 -83 -9 5 -11 24 -6 67 7 54 6 60 -11 56 -25 -4 -81 -81 -94 -127 -15 -57
1 -95 52 -114 39 -16 40 -17 34 -54 -9 -47 -48 -127 -61 -125 -5 1 -12 31 -15
67 l-5 66 -32 -59 c-18 -32 -41 -66 -52 -76 -34 -31 -35 1 -2 99 16 50 27 92
24 95 -8 8 -40 -37 -95 -137 -52 -95 -120 -183 -132 -172 -3 3 3 33 15 66 11
34 19 78 17 99 l-3 38 -36 -55 c-47 -70 -129 -159 -168 -182 -43 -25 -40 -9
15 88 53 93 74 140 74 166 0 32 -18 21 -61 -38 -53 -72 -131 -165 -135 -160
-2 2 8 25 22 52 14 28 32 73 40 102 13 44 28 64 100 132 47 45 105 93 130 107
42 25 48 26 83 14 33 -11 44 -10 82 7 49 22 105 80 115 119 4 14 2 36 -5 50
-9 20 -18 24 -53 24 -59 1 -120 16 -133 34 -7 9 -32 16 -61 18 -41 3 -49 6
-52 25 -2 12 9 35 26 55 36 41 57 82 67 128 11 56 61 152 95 185 l31 30 -7
-54 c-10 -73 8 -65 64 30 24 41 45 76 47 78 2 2 25 7 51 12 26 5 55 16 65 25
45 41 110 260 82 277 -13 8 -111 -40 -198 -96 -38 -25 -71 -44 -73 -42 -2 2
19 41 47 86 76 124 69 139 -28 59 -33 -27 -62 -50 -65 -50 -10 0 39 76 78 121
72 83 135 272 156 474 14 124 8 177 -26 240 -43 81 -22 124 36 77 32 -26 40
-140 29 -422 -9 -227 -19 -323 -38 -359 -16 -29 -14 -71 3 -71 8 0 24 16 36
35 12 19 27 35 34 35 7 0 26 -33 41 -72 41 -104 61 -135 93 -141 40 -8 82 -54
82 -88 0 -35 -3 -35 -41 -8 -16 11 -45 23 -64 26 -33 5 -40 2 -80 -40 -46 -49
-67 -98 -55 -132 10 -28 68 -59 195 -101 113 -37 164 -43 273 -29 42 6 52 11
52 26 0 10 -15 28 -32 40 -59 39 -149 176 -195 299 -13 36 -42 94 -63 130 -22
36 -48 90 -58 120 -38 110 -72 309 -72 419 0 138 -48 315 -102 377 -35 39 -50
42 -96 14z m2362 -1092 l-7 -113 59 -61 c95 -97 132 -189 44 -110 -45 41 -65
45 -80 16 -22 -41 -59 -20 -61 33 l0 22 -11 -22 c-36 -75 74 -207 195 -233 28
-6 57 -16 65 -22 8 -7 31 -49 52 -94 21 -45 57 -103 80 -128 23 -25 36 -46 29
-46 -26 1 -181 69 -214 95 -46 34 -55 32 -43 -9 12 -37 4 -86 -13 -86 -6 0
-25 16 -43 35 -32 34 -77 47 -90 26 -7 -12 34 -67 135 -181 93 -104 159 -191
159 -209 0 -6 -15 -11 -34 -11 -29 0 -34 -4 -39 -30 -5 -21 -12 -30 -26 -30
-15 0 -22 10 -28 43 -6 31 -15 45 -35 55 -18 8 -32 28 -43 60 -10 26 -20 54
-23 62 -3 9 -8 -2 -11 -24 -8 -53 -32 -67 -68 -40 -21 16 -37 46 -64 125 l-36
104 -18 -60 c-28 -97 -44 -132 -55 -115 -12 19 -15 8 -29 -95 -7 -44 -16 -84
-21 -89 -6 -6 -19 -1 -36 15 -43 40 -49 58 -27 88 34 46 35 51 14 51 -10 0
-45 -23 -75 -51 -31 -28 -56 -47 -56 -43 1 25 32 139 46 167 9 18 41 65 70
106 30 40 54 84 54 97 0 35 35 51 125 59 118 10 151 21 180 60 35 46 30 77
-15 91 -34 11 -43 24 -54 76 -3 15 -13 34 -22 42 -24 25 -78 -4 -149 -78 -67
-69 -105 -89 -105 -53 1 49 103 243 132 253 24 7 114 195 130 269 9 46 40 95
60 95 4 0 5 -51 2 -112z m347 -1028 c55 -40 102 -117 114 -187 9 -56 -7 -56
-40 1 -57 98 -84 75 -40 -34 33 -82 29 -105 -16 -95 -30 7 -30 6 -27 -27 3
-32 2 -33 -39 -36 -82 -6 -43 -57 97 -127 77 -38 117 -70 135 -108 8 -17 58
-88 110 -157 87 -115 107 -150 87 -150 -4 0 -45 38 -92 85 -47 47 -88 85 -92
85 -5 0 -5 -18 -2 -40 8 -47 -2 -50 -39 -12 -17 18 -35 59 -52 116 -14 49 -31
100 -39 113 -12 24 -14 21 -30 -57 -10 -45 -19 -80 -21 -78 -2 2 -33 53 -69
113 -36 61 -66 108 -66 105 0 -13 -30 -173 -33 -176 -2 -2 -9 31 -16 74 -16
95 -45 173 -73 198 l-21 19 7 -115 c7 -114 -1 -170 -24 -170 -5 0 -16 15 -23
32 l-13 33 -35 -70 -34 -70 -3 60 c-1 33 -5 66 -7 73 -8 22 -60 -25 -110 -100
-25 -37 -50 -68 -57 -68 -6 0 -20 -7 -30 -17 -28 -25 -23 -80 12 -133 16 -25
30 -50 30 -56 0 -22 42 -64 63 -64 12 0 45 11 74 24 51 24 52 24 69 5 32 -35
56 -20 80 48 25 73 36 89 70 97 14 4 29 18 34 31 18 47 81 30 140 -36 26 -29
47 -43 80 -50 25 -6 61 -23 82 -39 20 -16 61 -40 92 -54 30 -13 76 -45 101
-71 49 -48 90 -124 76 -138 -5 -5 -29 3 -53 17 -25 14 -56 26 -70 26 -24 0
-59 31 -96 86 -10 16 -12 4 -7 -71 9 -144 -14 -152 -65 -24 -23 57 -43 88 -67
107 -20 16 -37 42 -44 65 -15 55 -47 45 -77 -25 -23 -55 -48 -34 -73 62 l-13
45 -7 -53 c-5 -38 -14 -59 -33 -77 -38 -36 -35 -65 18 -139 14 -20 16 -30 8
-38 -15 -15 -55 21 -89 82 -14 25 -32 55 -40 68 l-14 23 -26 -21 c-14 -11 -42
-24 -63 -30 -36 -10 -157 -6 -168 4 -3 3 -13 29 -22 57 l-17 51 -63 -56 c-34
-31 -69 -56 -76 -56 -24 0 -15 25 22 61 96 92 84 143 -37 167 -104 20 -129 19
-174 -10 -49 -31 -86 -40 -105 -27 -12 8 -4 20 45 65 69 64 203 157 215 149 5
-3 6 -21 3 -40 -8 -48 15 -46 90 6 33 23 78 47 101 54 50 15 60 40 77 179 17
147 10 156 -40 51 -49 -104 -59 -119 -75 -106 -6 5 -24 11 -41 13 -28 3 -30 6
-33 51 -2 29 3 60 12 79 17 33 21 78 8 78 -11 0 -58 -51 -121 -132 -60 -77
-108 -121 -123 -112 -25 16 32 187 89 268 25 35 41 47 75 56 93 26 128 43 162
80 20 22 38 51 42 65 3 14 10 25 14 25 4 0 42 -36 85 -81 l77 -81 34 33 c18
18 36 30 39 27 3 -3 18 -29 33 -59 l27 -54 50 2 c105 4 134 12 141 40 8 32
-12 199 -32 267 -8 27 -14 51 -14 53 0 7 72 -27 101 -47z m2231 -487 c20 -18
24 -63 6 -64 -7 0 -35 0 -61 1 -40 1 -53 -3 -82 -28 -29 -26 -44 -31 -112 -37
-108 -9 -108 -9 -13 -29 l85 -17 76 25 c77 25 119 25 119 0 0 -35 -112 -77
-205 -76 -49 0 -80 -5 -107 -19 -21 -11 -38 -23 -38 -27 0 -4 14 -18 31 -32
18 -15 34 -40 38 -60 3 -18 12 -35 18 -37 7 -3 43 25 81 60 78 73 117 97 161
97 35 0 51 -22 51 -72 0 -71 -34 -93 -220 -143 -200 -53 -245 -85 -122 -85 38
0 95 -5 126 -12 l58 -11 33 36 c42 45 83 50 120 12 25 -24 33 -73 19 -110 -23
-59 -275 -74 -336 -18 -25 22 -58 6 -98 -49 -28 -38 -29 -43 -14 -51 24 -14
311 -1 404 18 41 8 78 15 83 15 8 0 10 -171 1 -194 -15 -38 -78 -1 -105 61
-26 61 -59 55 -59 -11 0 -46 -58 -96 -126 -109 -44 -8 -64 10 -72 67 -11 77
-58 90 -86 23 -12 -29 -28 -45 -96 -95 -11 -8 29 -21 101 -32 80 -11 101 -10
302 17 138 18 163 12 196 -47 30 -53 15 -67 -88 -76 -43 -3 -85 -10 -92 -15
-21 -14 13 -36 96 -60 38 -12 74 -24 79 -27 5 -3 -15 -17 -44 -32 l-53 -27 67
-5 c84 -7 106 -24 78 -58 -42 -52 -112 -19 -279 128 -119 105 -163 127 -310
153 -65 11 -129 27 -142 36 -21 13 -23 21 -19 69 3 39 11 61 28 79 18 20 24
36 23 67 -2 33 3 47 22 64 14 13 25 32 25 43 0 10 12 28 27 39 l28 20 -24 26
c-19 20 -22 32 -17 58 26 142 27 209 4 270 -8 22 -7 33 6 53 20 30 20 42 1 61
-21 21 -19 32 13 63 18 18 42 30 72 34 25 4 90 25 145 46 108 44 167 51 197
24z m-4597 -335 c161 -30 225 -45 241 -59 11 -11 30 -19 42 -19 12 0 27 -9 34
-20 7 -11 24 -20 38 -20 14 0 42 -15 64 -33 l39 -33 -128 12 -128 13 -46 45
c-29 28 -56 46 -70 46 -21 0 -18 -6 34 -65 l57 -65 -34 0 c-26 0 -43 9 -73 40
-21 22 -47 40 -58 40 -16 0 -15 -4 10 -36 l28 -37 -58 5 c-41 3 -57 1 -57 -7
0 -9 34 -15 108 -19 59 -4 125 -9 147 -13 36 -5 38 -4 26 11 -8 9 -12 18 -10
19 2 2 66 -4 142 -13 134 -14 140 -16 180 -50 39 -33 49 -36 211 -62 94 -15
175 -28 181 -28 5 0 -6 13 -25 30 -19 16 -30 29 -25 29 6 0 61 -10 123 -23 92
-19 111 -21 99 -9 -8 9 -59 24 -113 35 -82 17 -106 26 -141 56 -24 19 -42 36
-40 38 9 9 265 -49 299 -67 28 -15 80 -24 205 -36 136 -14 171 -20 183 -35 12
-15 46 -21 185 -33 117 -11 174 -20 185 -30 9 -8 54 -20 101 -27 49 -7 94 -19
109 -30 29 -21 135 -41 333 -63 89 -10 147 -21 157 -30 11 -10 73 -19 215 -30
191 -14 201 -16 220 -40 20 -24 23 -24 225 -31 195 -6 206 -8 230 -29 22 -21
42 -25 180 -36 101 -8 163 -17 178 -27 16 -11 72 -17 205 -22 236 -10 271 -21
447 -141 63 -42 112 -83 116 -94 4 -15 41 -37 140 -80 110 -48 134 -62 134
-79 0 -17 22 -29 123 -70 138 -56 147 -61 147 -88 0 -15 24 -31 104 -69 76
-35 108 -56 118 -75 11 -22 34 -34 131 -68 87 -30 117 -45 117 -58 0 -20 1
-21 177 -54 119 -22 143 -30 149 -46 8 -26 28 -33 174 -59 75 -14 133 -29 145
-40 11 -9 54 -22 95 -29 41 -6 107 -17 146 -23 39 -7 78 -19 87 -29 10 -9 41
-21 69 -27 60 -11 318 -31 423 -32 39 0 93 -4 120 -9 84 -15 181 -28 390 -51
247 -27 309 -39 314 -64 3 -17 -8 -18 -210 -12 -268 8 -359 20 -407 52 -35 24
-72 33 -72 18 0 -5 16 -18 35 -31 55 -35 44 -42 -57 -36 -82 5 -100 10 -151
40 -32 19 -68 34 -79 34 -21 0 -21 0 2 -25 l24 -26 -75 7 c-47 4 -84 14 -101
25 -14 11 -34 19 -44 19 -16 0 -16 -1 2 -21 16 -17 16 -22 4 -29 -31 -20 -79
-10 -148 30 -83 48 -112 52 -54 8 23 -17 40 -33 38 -35 -1 -2 -44 1 -95 6 -75
8 -99 15 -126 35 -19 15 -41 26 -51 26 -16 0 -15 -2 2 -21 l19 -22 -70 7 c-38
4 -79 10 -89 13 -15 4 -18 2 -13 -12 6 -15 -5 -16 -156 -9 l-162 7 -58 39
c-43 29 -61 37 -74 30 -14 -8 -11 -13 20 -33 20 -13 37 -26 37 -29 0 -13 -126
3 -143 18 -11 9 -43 18 -80 20 -34 3 -71 11 -82 18 -11 8 -31 14 -45 14 l-25
0 30 -25 30 -24 -40 0 c-78 0 -121 15 -173 59 -37 30 -56 40 -69 35 -16 -6
-12 -11 22 -41 l40 -34 -60 1 c-33 0 -79 4 -102 8 -23 4 -47 5 -54 0 -8 -5
-36 11 -76 42 -47 38 -67 48 -78 41 -14 -7 -11 -13 19 -40 20 -17 36 -33 36
-34 0 -2 -43 0 -95 3 -93 7 -97 8 -157 53 -72 54 -107 62 -62 15 l29 -31 -85
8 -85 7 -67 60 c-45 40 -73 57 -84 53 -12 -5 -4 -19 41 -71 l57 -65 -59 0
c-57 0 -64 3 -145 59 -58 40 -89 56 -99 51 -10 -7 -4 -17 26 -44 l40 -35 -40
-1 c-22 0 -49 6 -60 14 -11 7 -39 16 -63 20 -28 4 -63 21 -98 47 -37 29 -59
39 -71 34 -15 -5 -10 -14 32 -51 l50 -44 -81 0 -80 0 -70 57 c-38 31 -74 60
-79 64 -6 4 -16 4 -24 0 -9 -6 2 -20 40 -50 l52 -41 -88 0 c-87 0 -87 0 -152
45 -59 42 -93 55 -93 38 0 -5 28 -28 61 -53 l60 -45 -63 -3 c-88 -4 -138 12
-250 80 -127 77 -160 73 -47 -5 l84 -59 -99 8 -99 7 -100 68 c-93 64 -127 80
-127 62 0 -5 30 -36 67 -71 l68 -63 -50 5 c-187 18 -177 16 -232 62 -49 42
-72 52 -87 37 -3 -4 10 -24 31 -45 43 -44 44 -44 -91 -26 -86 11 -94 14 -151
60 -35 28 -70 48 -84 48 -24 0 -24 -1 14 -40 l39 -40 -70 0 -70 0 -64 55 c-58
49 -100 69 -100 48 0 -5 21 -27 47 -50 l48 -42 -74 -1 c-63 0 -81 4 -110 24
-20 13 -110 65 -201 115 -91 51 -172 100 -180 110 -8 10 -59 44 -112 75 -67
39 -98 63 -98 75 0 13 -30 36 -99 74 -149 84 -179 104 -183 126 -2 13 -46 47
-128 99 -68 43 -131 90 -140 104 -8 15 -59 56 -113 92 -138 93 -146 99 -147
116 0 8 -46 47 -103 86 -79 55 -103 76 -105 96 -2 18 -17 35 -45 54 -93 61
-157 116 -157 134 0 14 -19 30 -67 54 -38 19 -87 48 -111 66 -37 26 -41 34
-31 46 8 10 9 18 2 22 -5 4 -60 49 -121 101 l-112 94 32 23 c29 22 32 22 67 7
20 -8 135 -33 256 -55z m549 -113 c65 -8 126 -20 135 -27 63 -49 131 -112 131
-123 0 -7 7 -18 15 -25 9 -7 14 -15 11 -17 -2 -2 -59 6 -127 17 l-124 21 -70
66 c-38 37 -79 75 -90 85 -23 22 -28 22 119 3z m130 -1787 c3 -24 8 -262 12
-529 l6 -487 -98 -7 c-105 -8 -725 8 -743 19 -8 5 -11 154 -11 490 l0 483 88
7 c48 3 148 13 222 21 74 9 214 22 310 29 96 7 183 14 192 15 13 1 18 -10 22
-41z m320 -440 c-14 -45 -7 -98 19 -136 l25 -39 -126 -6 c-69 -4 -128 -4 -131
-1 -3 3 -8 48 -9 99 l-4 93 29 5 c15 2 68 5 116 6 87 1 88 1 81 -21z m-1234
-114 l0 -115 -109 7 c-95 6 -306 2 -1209 -21 l-203 -6 54 68 c109 137 116 139
702 158 248 9 518 19 600 23 83 4 153 6 158 4 4 -2 7 -55 7 -118z m-1593 66
c43 -26 56 -54 50 -104 -8 -55 -44 -86 -100 -86 -51 0 -84 21 -103 66 -12 29
-12 39 0 69 16 36 67 75 101 75 11 0 34 -9 52 -20z m40 -292 c26 -24 31 -80
12 -122 -17 -37 -74 -61 -118 -50 -89 22 -109 153 -29 190 42 18 105 10 135
-18z m1563 -152 c0 -52 -4 -96 -10 -98 -5 -1 -6 -8 -2 -15 5 -8 122 -14 392
-22 212 -6 406 -11 433 -11 46 0 47 -1 47 -30 l0 -30 -102 0 c-131 0 -608 17
-710 26 l-78 6 0 33 c0 19 -5 37 -12 41 -6 4 -250 15 -542 25 -809 27 -926 31
-926 39 0 3 11 17 25 30 14 13 30 41 37 62 l11 38 719 0 718 0 0 -94z m-1559
-149 c29 -19 34 -29 37 -68 2 -38 -2 -52 -23 -77 -50 -60 -139 -60 -189 -1
-32 38 -33 66 -3 110 42 62 116 78 178 36z m9 -273 c39 -34 63 -80 56 -109
-24 -97 -158 -132 -227 -59 -28 29 -33 94 -11 136 33 61 127 78 182 32z m-9
-287 c46 -31 68 -91 48 -132 -18 -39 -74 -75 -114 -75 -41 0 -96 37 -108 73
-13 41 1 96 33 129 36 36 92 38 141 5z m799 -177 c113 -11 306 -34 430 -51
578 -78 811 -107 1120 -139 102 -11 243 -26 315 -35 169 -20 185 -19 185 3 0
35 38 79 82 95 55 21 263 50 291 42 12 -4 54 -39 92 -78 39 -40 79 -77 90 -83
16 -9 5 -14 -69 -27 -100 -19 -105 -17 -136 44 -22 42 -82 97 -88 80 -2 -6 12
-29 32 -51 19 -22 38 -51 42 -64 15 -59 -48 -146 -116 -161 -81 -18 -171 25
-200 95 -7 17 -18 29 -24 27 -19 -7 -8 -86 18 -134 15 -25 26 -46 26 -48 0 -8
-944 126 -1084 154 -50 11 -113 22 -141 25 -387 46 -585 73 -760 101 -250 41
-562 81 -735 94 -134 11 -190 20 -190 30 0 3 25 19 56 35 31 16 65 43 76 60
l20 31 232 -12 c127 -7 323 -21 436 -33z m-789 -150 c45 -25 64 -115 33 -159
-37 -52 -126 -59 -168 -12 -20 22 -31 80 -22 116 13 50 105 82 157 55z m16
-290 c43 -26 56 -54 50 -104 -8 -56 -43 -86 -102 -86 -79 0 -128 64 -105 136
23 69 93 93 157 54z m572 -235 c174 -30 372 -68 440 -85 68 -17 244 -51 390
-75 146 -25 307 -56 356 -70 330 -91 453 -118 723 -160 90 -14 195 -32 233
-40 92 -20 99 -19 99 8 0 32 35 84 72 107 49 29 156 50 261 50 81 0 100 -4
146 -26 37 -19 49 -29 40 -35 -26 -16 -150 -41 -179 -37 -17 3 -30 4 -30 3 0
-2 7 -22 15 -45 19 -54 19 -74 -2 -117 -19 -41 -73 -79 -126 -89 -50 -9 -120
18 -148 57 -24 34 -35 36 -44 9 -9 -30 11 -83 45 -115 26 -25 40 -29 112 -35
62 -5 96 -14 133 -34 28 -14 77 -36 110 -48 46 -16 75 -36 123 -85 65 -64 74
-90 31 -86 -13 2 -50 3 -82 4 -52 0 -59 3 -67 25 -6 14 -10 43 -10 64 0 29 -6
43 -22 54 -38 27 -43 20 -40 -46 3 -53 0 -69 -20 -98 -45 -68 -140 -89 -225
-51 -46 21 -65 46 -83 108 -16 52 -8 83 30 127 17 19 27 36 23 39 -14 8 -522
134 -648 161 -66 14 -194 40 -285 57 -91 17 -237 54 -325 81 -88 27 -459 123
-825 213 -366 91 -674 169 -684 173 -16 7 -12 13 32 41 42 26 76 42 111 50 2
1 146 -24 320 -54z m-560 -41 c28 -36 29 -106 1 -134 -49 -49 -142 -32 -173
32 -16 33 -16 40 -3 71 18 45 39 56 103 57 44 0 55 -4 72 -26z"/>
<path d="M6261 6401 c-1 -27 2 -32 11 -23 8 8 8 17 0 34 -10 22 -11 21 -11
-11z"/>
<path d="M4808 5693 c9 -16 25 -21 76 -26 62 -6 71 -10 153 -73 l88 -66 -130
7 c-71 3 -138 9 -147 11 -13 4 -18 0 -18 -15 0 -12 5 -21 11 -21 6 0 137 -7
291 -16 154 -9 282 -13 285 -10 3 2 -8 22 -23 43 l-28 38 45 -43 46 -43 154
-10 c85 -5 164 -8 176 -7 12 2 32 -7 45 -18 19 -18 39 -23 111 -26 85 -4 88
-5 126 -42 l39 -38 167 -14 c218 -19 214 -20 175 34 l-32 42 29 -1 c15 0 54
-4 86 -8 48 -6 57 -5 52 7 -9 25 61 7 107 -27 39 -28 49 -31 122 -31 69 0 83
-3 112 -25 30 -23 41 -25 140 -25 101 0 110 -2 134 -25 18 -18 41 -26 85 -31
59 -7 60 -7 43 13 -10 11 -18 21 -18 24 0 2 55 3 122 1 102 -3 126 -6 143 -21
15 -14 44 -20 107 -25 80 -6 87 -6 81 10 -6 16 2 16 93 10 71 -5 106 -12 124
-25 28 -20 170 -38 170 -21 0 15 183 13 198 -2 8 -8 40 -11 96 -9 46 1 93 -2
103 -8 28 -14 311 -27 298 -13 -5 6 -69 14 -142 18 -128 7 -133 8 -159 35 -32
33 -69 43 -41 11 10 -10 17 -22 17 -25 0 -4 -30 -7 -67 -7 -65 0 -68 1 -110
42 -23 23 -45 39 -49 35 -4 -3 1 -13 10 -22 9 -9 16 -19 16 -22 0 -3 -29 -4
-63 -1 -53 3 -70 9 -104 36 -51 40 -66 41 -28 2 28 -29 28 -30 6 -30 -12 0
-19 -4 -16 -10 4 -6 -14 -10 -46 -10 -49 0 -55 3 -105 50 -53 50 -98 71 -56
27 12 -13 22 -27 22 -31 0 -4 -42 -4 -92 -1 l-93 7 -47 45 c-63 61 -79 51 -22
-15 l46 -52 -55 0 c-55 0 -55 0 -107 60 -31 36 -60 60 -72 60 -18 0 -16 -4 12
-40 l32 -40 -44 0 c-38 0 -46 4 -61 30 -10 17 -25 30 -34 30 -14 0 -14 -3 1
-25 22 -34 21 -35 -23 -35 -34 0 -44 6 -75 42 -38 47 -61 46 -27 -1 15 -21 18
-31 9 -34 -10 -4 -11 -7 0 -18 18 -20 15 -29 -12 -29 -14 0 -31 8 -38 19 -7
10 -30 37 -51 60 -41 46 -72 53 -37 8 l21 -27 -91 0 -92 0 -95 70 c-53 39 -98
69 -100 66 -2 -2 15 -23 39 -45 l43 -42 -70 7 c-68 6 -72 8 -125 60 -31 30
-61 54 -68 54 -17 0 -15 -10 6 -33 17 -20 16 -20 -25 -15 -34 5 -41 3 -36 -9
5 -12 -5 -13 -68 -8 -60 6 -77 11 -89 28 -47 68 -63 79 -110 75 -44 -4 -41
-11 11 -22 18 -4 45 -30 83 -81 31 -41 56 -76 56 -77 0 -2 -27 -1 -60 0 -58 4
-60 5 -105 58 -26 30 -53 54 -62 54 -17 0 -17 1 34 -67 l22 -29 -62 4 c-34 2
-68 9 -75 15 -7 5 -44 44 -82 87 l-69 77 52 -5 c41 -3 50 -2 40 8 -6 7 -36 15
-65 18 -47 4 -60 11 -119 63 -37 33 -75 59 -85 59 -13 0 21 -40 101 -120 l120
-120 -50 5 c-28 3 -63 8 -78 10 -19 3 -64 37 -127 95 -61 57 -103 88 -112 85
-11 -4 5 -26 56 -75 l71 -70 -35 0 c-19 0 -86 5 -148 10 l-114 9 -71 58 c-93
76 -118 93 -140 93 -15 0 -8 -14 33 -66 28 -36 50 -68 47 -70 -3 -3 -43 -2
-89 2 l-85 6 -108 84 c-95 74 -112 84 -149 84 -22 0 -58 3 -80 7 -36 6 -38 5
-28 -14z"/>
<path d="M5250 5417 c8 -9 47 -41 85 -72 l70 -57 -120 6 c-66 4 -144 9 -172
12 -29 3 -53 1 -53 -4 0 -20 54 -31 205 -42 150 -10 161 -13 193 -38 19 -15
43 -33 53 -40 17 -13 315 -39 326 -29 2 3 -28 33 -67 67 -38 35 -70 66 -70 70
0 4 26 5 58 2 53 -4 62 -9 139 -74 l82 -69 120 2 c76 1 126 -3 134 -10 8 -6
67 -14 133 -17 78 -4 124 -11 135 -20 10 -9 63 -18 145 -24 71 -6 147 -13 169
-16 l40 -5 -35 35 -34 36 40 -1 c78 -1 130 -15 170 -46 34 -27 50 -32 119 -37
44 -4 107 -9 140 -13 55 -6 59 -5 46 10 -12 16 -7 17 61 17 41 0 78 -4 84 -9
5 -5 54 -12 109 -16 92 -7 98 -6 85 10 -13 15 -8 16 61 10 45 -4 84 -14 99
-24 16 -12 53 -20 103 -24 76 -5 88 -2 66 20 -19 19 84 3 113 -18 32 -23 186
-41 174 -21 -5 9 10 12 52 12 46 0 63 -4 76 -19 15 -16 34 -20 107 -23 88 -3
98 -1 79 18 -15 15 92 4 115 -12 23 -16 160 -20 150 -4 -9 15 56 12 74 -4 11
-9 56 -16 131 -20 103 -5 113 -4 96 9 -14 10 -44 15 -97 15 l-77 0 -82 75
c-96 88 -130 101 -47 17 31 -32 57 -60 57 -62 0 -3 -22 -3 -50 -2 -32 3 -50 0
-50 -7 0 -6 -16 -11 -36 -11 -28 0 -47 10 -87 45 -29 25 -58 45 -67 45 -10 -1
-6 -8 13 -25 15 -13 27 -26 27 -28 0 -1 -24 0 -53 3 -45 5 -62 13 -109 53 -87
74 -107 60 -23 -18 l70 -64 -49 -1 c-44 0 -54 5 -102 45 -52 45 -94 63 -61 27
25 -28 21 -32 -32 -32 -45 0 -51 3 -85 45 -23 28 -45 45 -59 45 -18 0 -14 -7
26 -48 26 -26 47 -51 47 -56 0 -5 -21 -5 -47 -1 -38 6 -54 15 -89 53 -23 26
-45 44 -50 40 -4 -5 0 -16 9 -26 25 -28 22 -30 -35 -21 -45 7 -59 15 -95 54
-60 65 -74 52 -17 -15 l47 -55 -42 -3 c-41 -3 -47 0 -106 57 -77 74 -124 86
-55 15 31 -32 39 -45 25 -41 -11 3 -47 9 -80 12 -52 6 -65 12 -102 47 -56 55
-72 44 -22 -14 l41 -48 -61 0 c-59 0 -63 2 -116 50 -30 28 -63 50 -73 50 -12
0 -7 -10 21 -35 20 -20 37 -38 37 -41 0 -4 -27 -4 -60 -2 -53 4 -65 9 -98 41
-21 20 -46 37 -57 37 -15 0 -8 -11 30 -51 l50 -51 -110 6 -110 7 -70 70 c-63
61 -95 83 -95 62 0 -4 10 -17 22 -30 l22 -24 -84 7 c-79 6 -87 9 -122 41 -63
61 -60 31 4 -35 33 -34 59 -64 57 -66 -2 -1 -58 1 -124 6 l-120 9 -40 47 c-71
83 -90 100 -114 108 -21 5 -17 -3 26 -52 29 -32 51 -59 50 -60 -1 -1 -48 1
-105 4 l-102 5 -69 63 c-45 41 -77 64 -92 64 -21 0 -17 -7 34 -56 32 -31 56
-58 53 -61 -2 -2 -47 -1 -101 3 l-96 7 -75 68 c-73 66 -75 68 -142 73 -37 4
-85 8 -106 10 l-39 4 68 -68 c38 -38 67 -71 64 -73 -2 -2 -52 -1 -110 2 l-105
6 -120 106 c-69 62 -132 109 -149 113 -27 6 -28 6 -15 -7z"/>
<path d="M5570 5107 c0 -7 165 -144 187 -155 12 -7 45 -12 73 -12 38 0 60 -6
88 -25 l37 -25 -190 0 c-147 0 -186 -3 -177 -12 8 -8 77 -13 225 -16 l212 -3
-34 28 c-19 15 -42 33 -50 40 -13 10 -6 12 38 13 44 0 52 3 47 16 -4 10 14 2
44 -20 l50 -36 135 0 c74 0 135 3 135 7 0 4 -21 29 -47 55 l-47 48 55 0 55 0
74 -90 c41 -49 80 -90 88 -90 12 0 11 4 -2 25 -16 24 -16 25 7 25 15 0 45 -22
87 -65 38 -38 73 -65 85 -65 16 1 13 7 -20 35 l-40 35 125 0 c114 0 126 -2
138 -20 11 -18 23 -20 102 -20 50 0 90 3 90 6 0 4 -8 13 -17 20 -16 12 -7 13
57 14 74 0 76 -1 94 -31 14 -23 23 -29 40 -25 11 3 56 6 99 7 64 2 77 5 72 17
-4 12 2 13 37 7 24 -4 89 -9 146 -10 71 -3 111 -8 126 -19 16 -10 64 -17 152
-22 124 -7 128 -6 114 11 -14 17 -12 18 43 13 39 -3 68 -12 89 -28 29 -21 45
-24 162 -28 120 -4 130 -4 117 12 -12 15 -6 16 80 16 89 0 94 -1 124 -29 29
-28 35 -30 150 -37 111 -6 119 -6 106 9 -12 15 -9 17 33 17 35 0 56 -7 80 -25
30 -23 42 -25 126 -25 81 0 91 2 75 13 -16 13 -14 15 24 21 35 5 47 2 74 -18
28 -21 49 -25 180 -36 82 -7 151 -10 154 -7 17 18 -18 27 -101 27 -86 0 -94 2
-116 25 -13 14 -30 25 -39 25 -12 0 -12 -3 -3 -12 17 -17 15 -28 -6 -28 -10 0
-40 22 -67 50 -27 27 -57 50 -67 50 -22 0 -23 -8 -1 -32 15 -17 14 -18 -27
-18 -39 0 -47 5 -104 65 -39 41 -72 67 -91 71 -27 6 -22 -2 53 -78 45 -46 82
-86 82 -90 0 -4 -24 -4 -52 -1 -48 6 -60 12 -131 79 -50 46 -84 71 -94 67 -11
-4 -2 -18 33 -54 l48 -49 -45 0 c-42 0 -49 4 -114 70 -40 40 -78 70 -89 70
-16 0 -1 -20 59 -80 l80 -80 -74 0 -74 0 -81 73 c-95 86 -99 89 -120 81 -13
-5 -7 -14 26 -45 l43 -38 -55 -1 c-52 0 -59 3 -133 60 -104 80 -147 82 -48 3
65 -53 69 -58 45 -61 -21 -3 -23 -6 -13 -18 10 -12 -1 -14 -75 -14 l-86 0 -88
79 c-75 67 -132 105 -132 88 0 -3 26 -30 58 -61 l57 -56 -58 0 c-57 0 -60 1
-115 54 -31 29 -68 56 -81 59 -19 5 -7 -11 47 -66 l72 -72 -84 3 -83 3 -89 74
c-103 86 -162 106 -73 25 30 -27 57 -49 62 -50 4 0 7 -4 7 -10 0 -6 -33 -10
-78 -10 l-79 0 -89 70 c-49 39 -97 70 -106 70 -10 0 -18 -1 -18 -3 0 -2 27
-25 60 -53 33 -27 60 -52 60 -56 0 -5 -14 -8 -31 -8 -26 0 -29 -2 -20 -14 10
-12 1 -15 -56 -18 l-68 -3 -85 89 c-55 57 -92 87 -103 85 -13 -3 -5 -17 35
-63 l52 -58 -45 7 c-39 6 -54 17 -131 98 -48 50 -90 88 -95 84 -4 -5 -3 -11 2
-15 6 -4 41 -42 78 -84 48 -55 64 -78 51 -78 -16 0 -16 -1 1 -20 18 -20 17
-20 -37 -20 l-55 0 -67 85 c-37 47 -74 85 -82 85 -21 0 -18 -6 31 -70 l45 -58
-55 -4 c-55 -3 -56 -3 -107 50 -48 47 -78 65 -78 44 0 -4 18 -26 40 -47 22
-21 40 -42 40 -45 0 -3 -18 -4 -41 -4 -31 1 -48 9 -73 33 -26 25 -41 31 -76
32 -42 0 -48 3 -94 60 l-49 59 -91 0 -90 0 49 -50 49 -50 -102 0 -103 0 -82
63 c-100 77 -116 86 -146 87 -20 0 -15 -8 40 -61 51 -48 59 -59 39 -55 -14 3
-65 6 -115 6 l-90 0 -82 70 c-45 39 -91 70 -102 70 -12 0 -21 -1 -21 -3z"/>
<path d="M5856 4801 c5 -5 38 -33 74 -62 l65 -52 -62 7 c-40 4 -63 3 -63 -3 0
-18 18 -22 167 -33 143 -10 150 -11 201 -45 51 -32 58 -34 170 -39 109 -5 116
-4 97 11 -19 15 -13 16 90 10 279 -14 487 -19 492 -12 5 8 206 2 286 -9 28 -3
36 -1 31 7 -5 9 24 11 119 7 105 -5 125 -4 120 8 -4 11 8 14 54 14 50 0 67 -5
100 -29 37 -26 49 -29 164 -36 68 -4 130 -12 138 -19 10 -8 97 -11 285 -11
267 0 272 0 311 -24 39 -23 43 -23 197 -16 l157 7 56 -32 c52 -30 61 -32 143
-29 48 1 95 -2 105 -6 11 -4 60 -5 111 -2 71 4 96 2 111 -9 14 -11 45 -15 105
-14 47 0 117 -2 155 -5 230 -17 269 -17 256 -1 -10 12 -33 16 -90 16 -65 0
-82 4 -114 25 -38 26 -77 25 -42 -2 17 -12 15 -13 -22 -13 -34 0 -49 7 -91 45
-61 55 -91 60 -39 7 20 -21 37 -41 37 -45 0 -4 -27 -7 -60 -7 -58 0 -64 2
-135 56 -80 60 -125 73 -50 14 24 -19 44 -38 45 -42 0 -5 -33 -8 -73 -8 l-73
0 -98 75 c-54 41 -105 75 -113 75 -22 0 -7 -15 71 -75 36 -27 65 -52 66 -55 0
-3 -33 -4 -72 -2 -70 4 -78 7 -200 79 -138 81 -191 95 -84 23 36 -25 66 -48
66 -52 0 -5 -63 -8 -140 -8 -133 0 -142 1 -181 26 -37 23 -53 26 -182 31 -116
5 -147 9 -169 24 -42 30 -56 21 -18 -13 l35 -30 -119 6 -120 5 -61 61 c-33 33
-67 60 -75 60 -8 0 5 -20 30 -45 l44 -45 -105 0 -105 0 -67 60 c-63 56 -87 70
-87 53 0 -4 10 -17 22 -30 l21 -23 -69 0 c-68 0 -71 1 -109 40 -21 22 -48 40
-58 40 -17 0 -14 -7 17 -45 l37 -45 -94 0 c-94 0 -94 0 -151 41 -78 56 -108
48 -36 -10 l55 -43 -132 4 -133 4 -38 37 c-21 21 -48 37 -61 37 -19 0 -16 -5
24 -40 l46 -40 -158 0 -158 1 -59 44 c-33 25 -69 45 -80 45 -19 -1 -19 -2 6
-21 14 -11 37 -29 50 -40 l23 -20 -105 6 -104 6 -72 65 c-40 35 -80 64 -90 64
-16 -1 -14 -5 11 -27 17 -14 56 -50 88 -79 l58 -54 -69 0 -69 0 -86 65 c-48
36 -96 65 -107 65 -20 0 -19 -2 7 -25 l28 -26 -55 7 c-46 5 -67 15 -134 65
-44 32 -89 59 -100 59 -12 0 -16 -4 -10 -9z"/>
<path d="M6270 4518 c14 -11 39 -31 55 -44 l30 -24 -48 0 c-30 0 -46 -4 -42
-10 3 -5 36 -10 72 -10 65 0 66 0 48 20 -18 20 -17 20 37 20 32 0 62 -6 74
-15 30 -23 51 -19 29 5 -18 20 -17 20 29 20 32 0 56 -7 75 -21 22 -16 49 -22
117 -26 49 -3 101 -12 117 -20 22 -11 59 -12 182 -7 85 4 152 10 150 14 -2 4
46 10 107 13 90 6 116 4 135 -8 16 -11 50 -15 116 -15 66 0 99 -4 113 -15 15
-11 54 -14 177 -15 88 0 156 4 153 9 -3 5 11 11 32 15 73 12 122 6 172 -19 45
-23 61 -25 171 -25 67 0 150 -4 183 -10 91 -14 274 -18 270 -5 -3 7 13 9 46 5
41 -4 60 -13 99 -47 l49 -43 137 -15 c75 -8 139 -15 141 -15 2 0 4 6 4 13 0
19 254 6 302 -16 25 -11 76 -18 165 -22 86 -4 146 -13 183 -25 35 -13 82 -19
130 -19 157 0 344 -16 382 -33 47 -21 406 -39 394 -20 -5 9 11 12 56 12 44 0
59 3 48 10 -8 5 -40 10 -71 10 -36 0 -77 9 -117 25 -88 36 -124 31 -44 -5 34
-16 62 -30 62 -32 0 -2 -60 0 -133 4 l-134 6 -111 56 c-62 31 -116 56 -122 56
-22 0 -8 -17 30 -39 22 -12 40 -25 40 -28 0 -2 -39 -2 -87 2 -80 7 -96 12
-176 57 -104 59 -145 61 -58 3 33 -22 61 -43 61 -47 0 -5 -21 -8 -46 -8 -37 0
-65 10 -131 46 -90 49 -143 69 -143 53 0 -5 3 -9 8 -9 4 -1 21 -12 37 -26 l30
-26 -98 6 c-88 6 -107 11 -178 46 -43 22 -86 40 -95 40 -16 0 -15 -2 1 -20 10
-11 16 -22 14 -23 -9 -8 -236 20 -256 31 -12 7 -32 12 -44 12 -22 0 -22 0 -3
-21 l19 -21 -85 7 c-78 6 -90 10 -145 49 -57 39 -65 41 -148 46 -57 3 -86 1
-83 -5 2 -7 -33 -9 -103 -7 -101 4 -107 5 -136 33 -44 41 -76 39 -38 -3 15
-17 12 -18 -101 -18 -105 0 -122 3 -166 25 -43 22 -62 25 -150 25 l-101 0 -58
41 c-80 57 -110 48 -36 -10 30 -24 55 -48 55 -52 0 -5 -48 -9 -106 -9 -91 0
-109 3 -131 20 -22 17 -41 20 -127 20 -94 0 -104 2 -151 30 -57 34 -94 41 -55
10 l25 -20 -118 0 c-100 0 -123 3 -145 19 -24 16 -92 36 -92 27 0 -2 20 -17
45 -33 25 -15 45 -31 45 -35 0 -5 -48 -8 -106 -8 l-106 0 -80 56 c-45 31 -87
54 -98 52 -15 -2 -9 -11 30 -38 27 -19 49 -37 50 -40 1 -14 -127 4 -151 21
-20 14 -44 19 -97 19 -50 0 -73 4 -82 15 -14 16 -40 20 -40 6 0 -5 7 -11 15
-15 33 -12 12 -21 -42 -18 -42 3 -67 11 -90 28 -17 13 -40 24 -50 24 -15 -1
-14 -4 7 -22z"/>
<path d="M4928 4077 l-108 -9 0 -129 0 -129 124 0 c68 0 131 3 140 6 14 5 16
27 16 140 l0 134 -32 -2 c-18 0 -81 -5 -140 -11z"/>
<path d="M4590 4043 c-19 -1 -59 -6 -87 -9 l-53 -5 0 -114 c0 -63 3 -115 8
-117 4 -2 67 -2 140 0 l132 4 0 124 0 124 -52 -2 c-29 0 -69 -3 -88 -5z"/>
<path d="M4900 3763 l-75 -4 2 -67 c1 -37 2 -100 2 -140 l1 -73 135 2 c74 0
137 4 139 8 2 3 1 68 -2 144 l-5 137 -61 -2 c-33 -1 -95 -4 -136 -5z"/>
<path d="M4538 3753 l-88 -4 3 -136 c2 -101 6 -138 16 -141 7 -2 69 -1 137 3
l124 7 0 139 0 139 -52 -2 c-29 -1 -92 -4 -140 -5z"/>
<path d="M4862 3433 l-33 -4 3 -130 3 -130 144 -2 144 -2 -7 104 c-3 57 -6
119 -6 138 l0 33 -107 -2 c-60 0 -123 -3 -141 -5z"/>
<path d="M4460 3306 l0 -123 138 -6 c75 -2 138 -3 140 -2 2 2 0 60 -4 129 l-7
126 -133 0 -134 0 0 -124z"/>
<path d="M1659 8540 c-58 -34 -87 -157 -99 -421 -15 -317 -54 -446 -211 -684
-49 -75 -89 -138 -89 -139 0 -2 29 -9 66 -16 84 -16 98 -30 89 -87 -17 -118
-103 -288 -312 -623 -92 -145 -133 -221 -133 -243 0 -35 30 -42 162 -39 104 3
128 1 128 -11 0 -7 -42 -73 -94 -145 -52 -72 -111 -162 -131 -199 -21 -37 -73
-104 -115 -149 -106 -110 -161 -210 -129 -230 7 -4 75 -13 151 -19 77 -7 144
-17 150 -23 14 -14 -35 -144 -132 -347 -68 -143 -110 -203 -258 -370 -39 -44
-79 -95 -89 -112 -17 -31 -17 -34 0 -50 15 -15 43 -19 182 -23 90 -3 167 -8
171 -12 18 -18 -145 -193 -261 -281 -150 -114 -430 -365 -482 -433 -42 -55
-42 -88 2 -92 22 -2 35 -12 48 -34 l18 -31 104 6 c119 8 138 -1 133 -57 -3
-28 0 -31 28 -34 25 -2 37 3 59 30 15 18 37 38 49 45 26 15 93 17 102 2 10
-17 55 -1 111 42 56 42 95 61 161 79 24 6 60 26 80 44 44 39 74 56 99 56 23 0
61 39 98 100 40 65 74 99 128 126 91 47 167 146 167 219 0 43 -19 46 -67 9
-18 -14 -33 -23 -33 -20 0 11 65 124 96 166 42 59 82 96 116 109 15 6 40 28
55 50 16 22 35 40 45 41 9 0 46 -33 83 -72 81 -89 133 -130 156 -123 9 3 38
-6 64 -20 52 -27 85 -31 133 -14 38 13 47 38 32 85 -7 19 -10 36 -8 37 1 1 19
10 38 20 19 10 45 27 58 37 l23 19 -25 40 c-20 31 -37 44 -77 58 -38 13 -60
29 -84 60 -17 23 -47 54 -65 70 l-33 28 6 -35 c4 -19 10 -58 14 -87 5 -44 3
-53 -10 -53 -27 0 -106 88 -117 130 -6 22 -20 44 -30 50 -19 10 -20 8 -17 -54
2 -52 -2 -70 -19 -93 -46 -62 -74 -30 -74 83 0 35 -3 64 -7 64 -4 0 -22 -15
-41 -32 l-34 -33 7 75 c6 68 5 73 -9 56 -8 -10 -20 -40 -25 -68 -16 -71 -111
-213 -111 -165 0 9 13 51 29 94 38 105 46 143 29 143 -7 0 -37 -46 -66 -103
-29 -56 -63 -116 -77 -132 -23 -28 -24 -29 -25 -8 0 13 16 61 35 107 35 85 43
126 25 126 -5 0 -23 -26 -39 -57 -16 -32 -39 -67 -51 -78 l-23 -20 7 38 c4 21
3 37 -3 37 -16 0 -69 -67 -90 -115 -12 -28 -26 -45 -37 -45 -27 0 -13 89 27
168 29 57 41 70 80 89 85 40 209 178 230 256 6 22 20 52 31 67 19 26 39 150
24 150 -3 0 -34 -21 -68 -46 -53 -38 -67 -45 -94 -39 -29 5 -36 1 -73 -42
l-42 -48 26 58 c14 32 25 62 25 67 0 26 -24 4 -64 -59 -66 -102 -89 -105 -45
-4 12 26 36 89 53 138 l32 90 46 -1 c36 0 59 -8 102 -37 31 -20 66 -37 79 -37
31 0 67 40 76 82 11 55 43 50 156 -27 114 -78 167 -103 240 -111 88 -11 102
-3 123 69 l18 62 47 -1 c37 0 55 -7 84 -31 62 -49 247 -333 229 -351 -4 -3
-19 4 -34 16 -15 12 -48 33 -73 46 -38 21 -52 37 -84 98 -50 96 -73 128 -92
128 -16 0 -15 -3 4 -104 l6 -28 -42 23 c-34 20 -43 22 -50 10 -9 -14 -1 -53
18 -90 13 -23 0 -29 -17 -8 -6 7 -34 24 -62 37 -73 34 -79 22 -47 -82 14 -45
25 -84 23 -85 -7 -7 -70 94 -90 144 -21 55 -48 85 -63 70 -6 -7 5 -47 32 -111
6 -14 4 -17 -11 -14 -20 3 -58 52 -107 137 -43 74 -62 79 -52 15 4 -26 15 -74
25 -106 10 -32 15 -58 11 -58 -10 1 -94 107 -113 143 -9 18 -17 39 -18 48 0 9
-7 22 -15 29 -24 20 -27 -8 -10 -89 17 -84 19 -121 5 -121 -5 0 -10 6 -10 14
0 22 -28 39 -55 32 -19 -5 -25 -13 -25 -34 0 -79 189 -291 259 -292 14 0 69
-19 121 -41 132 -57 129 -57 170 -5 48 61 60 100 53 164 -7 65 -12 65 172 12
82 -24 163 -41 195 -42 59 -1 120 22 120 46 0 7 -34 62 -77 122 -162 230 -203
295 -203 320 0 25 4 28 51 38 38 8 42 29 18 98 -35 105 -89 200 -144 254 -53
52 -115 148 -115 178 0 8 17 24 38 35 58 30 76 54 69 97 -9 54 -63 117 -146
171 -107 69 -201 211 -201 304 0 24 6 32 29 40 34 12 51 45 51 100 0 49 -12
74 -110 219 -100 149 -114 178 -149 307 -42 154 -106 333 -157 440 -65 136
-80 276 -49 448 21 116 20 180 -5 205 -21 21 -64 26 -91 10z m-5 -222 c4 -13
11 -97 16 -188 11 -204 13 -215 62 -320 43 -93 63 -121 83 -114 28 11 69 -66
47 -88 -38 -38 -156 80 -188 188 -8 30 -17 54 -19 54 -1 0 -2 -30 -1 -66 1
-53 -2 -67 -16 -75 -39 -22 -20 -58 118 -221 49 -58 98 -129 114 -163 15 -33
59 -100 99 -150 39 -49 71 -93 71 -96 0 -4 -8 -10 -17 -14 -12 -4 -24 2 -39
20 -13 16 -26 24 -36 20 -22 -9 -44 17 -67 81 -33 87 -50 114 -79 126 -15 7
-34 18 -43 25 -14 12 -16 9 -12 -34 4 -51 -7 -80 -27 -68 -21 13 -39 71 -46
144 -4 39 -8 71 -10 71 -2 0 -20 -11 -40 -25 -47 -32 -74 -33 -74 -2 1 12 7
33 15 47 24 42 17 43 -27 6 -40 -35 -68 -46 -68 -27 0 5 16 51 35 102 61 158
75 229 85 419 11 204 18 281 31 333 11 42 24 48 33 15z m-5 -1072 c6 -24 38
-96 71 -159 33 -63 60 -125 60 -136 0 -19 -6 -21 -55 -21 -30 0 -55 -4 -55
-10 0 -5 -4 -10 -10 -10 -5 0 -10 15 -10 33 0 45 -13 63 -30 42 -22 -26 -27
-17 -34 56 l-7 72 -20 -32 c-11 -19 -27 -31 -37 -30 -32 3 -39 -1 -50 -26 -16
-35 -15 -122 2 -178 8 -26 32 -75 54 -109 62 -99 95 -168 79 -168 -20 0 -67
53 -75 85 -14 51 -33 53 -112 11 -40 -20 -75 -35 -78 -32 -3 3 11 41 30 83 38
83 53 133 41 133 -5 0 -19 -21 -32 -46 -30 -56 -137 -198 -180 -238 -47 -45
-39 -13 25 95 31 51 64 116 74 142 9 26 27 57 38 68 40 36 94 172 107 266 10
66 26 88 93 122 82 43 97 41 111 -13z m341 -401 c17 -9 47 -53 89 -132 35 -65
80 -140 101 -168 88 -119 81 -158 -12 -62 -65 66 -122 153 -144 220 -9 29 -20
56 -25 62 -16 17 -9 -67 12 -142 11 -40 17 -78 14 -83 -20 -32 -95 82 -95 144
0 20 -5 36 -10 36 -6 0 -24 -21 -40 -47 -60 -95 -38 -161 114 -343 53 -63 96
-120 96 -127 0 -28 -27 -10 -106 72 -45 47 -89 85 -98 85 -22 0 -45 39 -63
107 -17 66 -39 113 -53 113 -6 0 -9 -25 -8 -57 2 -46 0 -58 -13 -61 -40 -8
-51 118 -15 172 9 15 33 30 55 36 43 11 51 26 51 97 0 54 14 90 37 96 25 7 82
-2 113 -18z m-859 -354 c-6 -10 -18 -24 -27 -32 -15 -13 -16 -12 -9 11 4 14
12 31 17 37 15 19 30 5 19 -16z m414 -69 c6 -4 21 -28 34 -54 30 -61 132 -171
152 -163 8 3 38 -14 69 -40 30 -25 66 -48 80 -50 14 -3 82 -24 153 -47 91 -30
130 -39 138 -31 7 7 8 30 1 74 -11 76 -2 109 31 109 35 0 65 -26 93 -83 15
-29 52 -88 83 -132 65 -90 77 -115 57 -115 -14 0 -96 79 -96 92 0 5 -4 8 -9 8
-6 0 -6 -12 0 -32 24 -86 4 -88 -46 -6 -38 61 -39 62 -48 35 -7 -22 -15 -27
-43 -27 -52 0 -53 -22 -6 -114 38 -74 52 -133 36 -149 -4 -4 -25 9 -46 29 -38
34 -41 35 -63 20 -40 -26 -51 -19 -84 49 -22 46 -41 72 -65 86 -19 11 -38 32
-44 47 -5 15 -17 48 -27 75 -10 28 -23 47 -32 47 -13 0 -14 -12 -8 -80 4 -44
5 -80 1 -80 -13 0 -46 45 -46 63 0 24 -62 167 -73 167 -4 0 -5 -10 -3 -22 12
-56 17 -186 7 -192 -13 -8 -18 2 -57 108 l-33 91 6 -117 c6 -111 5 -118 -13
-118 -10 0 -27 -11 -39 -24 -11 -13 -30 -27 -42 -31 -29 -8 -30 6 -3 145 20
101 20 150 1 150 -5 0 -23 -11 -39 -25 -62 -52 -92 -21 -33 34 35 33 41 44 41
79 0 22 -5 44 -11 47 -18 12 -45 -23 -109 -141 -99 -181 -125 -200 -75 -53 35
101 27 117 -19 44 -89 -141 -108 -164 -140 -175 -18 -6 -48 -26 -66 -45 -59
-61 -72 -33 -16 34 34 41 38 49 50 102 3 15 34 67 69 115 36 49 77 114 92 144
33 67 53 90 75 90 9 0 25 10 36 21 33 38 104 60 129 41z m-59 -744 c-7 -38
-168 -372 -184 -382 -11 -6 -16 4 -27 62 -4 17 -10 32 -15 32 -10 0 -26 -48
-36 -105 -11 -67 -90 -192 -109 -173 -3 3 13 43 35 90 38 82 52 148 30 148
-14 0 -52 -61 -124 -198 -54 -101 -141 -220 -153 -208 -3 2 8 24 25 48 43 63
58 96 76 165 19 76 72 184 137 278 62 90 77 107 119 135 19 13 58 42 85 65
120 101 154 111 141 43z m-290 -1009 c-25 -33 -46 -65 -46 -69 0 -17 113 -130
135 -136 15 -4 53 7 104 30 45 20 89 36 96 36 26 0 16 -35 -22 -79 -42 -50
-149 -141 -165 -141 -7 0 -8 19 -3 56 l7 57 -46 -6 c-43 -6 -47 -5 -56 19
l-10 25 -31 -18 c-36 -21 -180 -170 -216 -225 -36 -54 -27 -68 41 -61 50 5 60
3 96 -22 37 -25 46 -27 110 -23 l69 5 -37 -27 c-133 -96 -172 -103 -172 -29 0
31 -28 22 -115 -37 -46 -31 -88 -55 -95 -52 -7 2 5 24 29 55 82 103 45 97
-144 -21 -144 -90 -142 -78 16 95 132 146 179 205 179 226 0 21 -14 15 -31
-15 -8 -15 -57 -56 -107 -92 -90 -64 -326 -210 -339 -210 -3 0 25 28 63 62 38
35 145 135 237 223 354 337 483 452 496 440 2 -2 -17 -32 -43 -66z"/>
<path d="M1243 6094 c-28 -40 -75 -135 -70 -141 6 -5 56 67 81 115 23 45 15
63 -11 26z"/>
<path d="M4076 7609 c-26 -39 -62 -79 -81 -90 -40 -24 -48 -51 -43 -149 l3
-65 48 0 c26 0 51 -5 55 -12 19 -30 111 -43 169 -23 39 14 59 50 83 151 24
101 26 139 5 139 -20 0 -42 -36 -56 -95 -14 -61 -35 -88 -49 -65 -5 8 -10 38
-10 65 0 78 -13 88 -56 42 -20 -21 -37 -37 -39 -35 -2 2 5 37 15 78 21 80 25
130 11 130 -4 0 -29 -32 -55 -71z"/>
<path d="M2425 5120 c-4 -6 -11 -39 -16 -73 -27 -178 -25 -205 20 -255 42 -45
92 -45 154 3 25 19 57 39 71 45 27 10 31 32 17 95 -4 17 -2 38 3 48 13 21 -1
47 -35 64 -74 37 -183 83 -194 83 -8 0 -17 -5 -20 -10z"/>
<path d="M1805 4565 c-49 -31 -78 -31 -104 -3 l-20 21 -11 -27 c-13 -34 -13
-147 0 -204 8 -34 7 -49 -6 -74 -20 -40 -8 -71 41 -99 19 -12 35 -29 35 -38 0
-60 104 -66 185 -11 49 34 62 62 46 104 -13 34 -14 76 -2 76 16 0 121 102 137
132 24 46 13 61 -40 53 -57 -9 -73 -3 -142 50 -32 25 -62 45 -68 45 -6 0 -29
-12 -51 -25z"/>
<path d="M1609 4125 c-14 -22 -45 -75 -69 -117 -47 -85 -138 -209 -158 -216
-22 -7 -13 20 48 149 90 190 81 213 -24 63 -38 -53 -81 -104 -97 -113 -19 -10
-45 -46 -75 -103 -44 -82 -78 -127 -89 -116 -3 2 6 37 20 76 14 39 25 81 25
93 0 35 -31 18 -56 -31 -90 -178 -184 -381 -184 -399 0 -19 5 -21 58 -21 31 0
70 -7 86 -15 41 -22 52 -19 83 20 27 33 65 46 77 26 13 -21 49 -18 100 9 29
16 70 32 92 36 57 10 87 28 132 79 59 67 158 266 177 357 l7 33 -29 -27 c-34
-32 -40 -34 -64 -12 -15 14 -20 13 -53 -16 -36 -32 -56 -33 -56 -2 0 9 16 47
35 84 34 68 50 134 43 179 -3 23 -5 22 -29 -16z"/>
<path d="M8050 3408 c1 -359 5 -808 10 -998 5 -190 12 -565 16 -834 l7 -489
-66 7 c-37 3 -74 9 -83 13 -14 5 -15 69 -12 666 l3 659 -65 -5 c-36 -3 -148
-15 -250 -26 -102 -11 -342 -34 -535 -51 -505 -43 -452 -34 -460 -80 -9 -51
-50 -112 -103 -151 -37 -27 -42 -36 -42 -69 0 -34 5 -42 50 -74 l50 -36 98 15
c53 8 268 37 477 65 447 59 660 89 698 96 25 5 27 3 27 -29 0 -34 -1 -35 -47
-40 -27 -4 -167 -20 -313 -37 -145 -17 -334 -41 -420 -55 -85 -13 -218 -31
-295 -40 -209 -24 -195 -19 -195 -71 0 -25 -9 -62 -19 -83 -18 -35 -75 -94
-99 -102 -6 -2 -13 -20 -17 -40 -6 -34 -4 -38 43 -73 l50 -36 102 15 c55 8
262 45 458 81 468 86 741 132 747 126 3 -3 5 -16 5 -28 0 -17 -7 -25 -22 -28
-174 -33 -1211 -215 -1230 -216 -13 0 -8 -34 7 -54 17 -23 -56 -34 741 114
264 50 485 90 492 90 8 0 12 -56 14 -195 2 -107 2 -195 1 -195 -10 0 -726 114
-780 124 -70 13 -73 13 -73 -5 0 -11 3 -19 8 -19 10 0 802 -129 830 -135 20
-5 22 -11 22 -64 0 -68 -12 -61 140 -81 76 -10 94 -10 169 9 46 11 85 21 86
23 2 2 0 675 -3 1496 l-5 1492 -109 0 -108 0 0 -652z"/>
<path d="M8328 3934 c2 -65 6 -121 9 -124 2 -2 68 -6 145 -8 104 -3 139 -1
134 7 -4 6 -5 24 -2 39 l6 27 208 -6 c114 -4 298 -7 410 -8 153 -1 204 -4 206
-13 3 -7 7 -25 10 -39 6 -26 9 -27 83 -31 119 -6 113 -12 113 103 l0 98 -32 5
c-32 5 -853 50 -1148 63 l-145 6 3 -119z"/>
<path d="M9780 2730 l0 -1240 -24 0 c-13 0 -45 3 -71 7 l-47 6 4 229 c3 183 2
228 -9 228 -10 0 -13 -49 -13 -239 l0 -239 88 -8 c71 -6 101 -3 162 12 l75 20
0 409 c0 389 -8 1054 -21 1743 l-6 312 -69 0 -69 0 0 -1240z"/>
<path d="M11045 3913 c-19 -4 -20 -12 -20 -201 0 -108 -1 -584 -2 -1057 l-3
-860 -60 3 -60 4 0 169 c0 102 -4 169 -10 169 -24 0 -28 -43 -22 -201 l7 -164
72 -8 c63 -8 80 -6 145 16 l73 24 0 1054 0 1054 -50 1 c-27 1 -59 0 -70 -3z"/>
<path d="M11210 3840 c0 -57 1 -60 24 -60 18 0 25 6 28 23 3 19 9 22 52 22 41
1 52 5 74 30 l25 30 -44 7 c-24 3 -70 7 -101 7 l-58 1 0 -60z"/>
<path d="M11900 3873 c0 -5 0 -419 -1 -921 0 -503 1 -916 3 -918 10 -9 178 -6
216 5 l42 12 0 910 0 910 -57 -3 -58 -3 -3 -908 -2 -909 -43 7 c-23 3 -49 9
-58 11 -16 4 -17 75 -11 909 5 837 4 905 -11 905 -10 0 -17 -3 -17 -7z"/>
<path d="M2173 3832 c-19 -12 -43 -77 -43 -115 0 -32 -2 -33 -31 -29 -35 5
-51 -11 -43 -44 3 -12 -1 -26 -10 -33 -29 -25 -43 -6 -49 68 -6 78 -22 120
-39 103 -6 -6 -14 -54 -19 -106 -8 -93 -20 -136 -39 -136 -19 0 -30 41 -30
113 0 92 -8 137 -27 144 -35 13 -45 -20 -54 -183 -5 -88 -12 -170 -15 -184
l-6 -25 -19 25 c-19 24 -20 25 -34 6 -8 -11 -15 -24 -15 -29 0 -4 -10 -7 -22
-5 -22 3 -30 18 -43 81 -7 36 -20 34 -34 -4 -16 -47 -14 -92 9 -156 11 -32 20
-62 20 -68 -1 -21 -31 -49 -56 -50 -14 -1 -47 -18 -75 -38 -27 -21 -49 -36
-49 -34 0 2 11 37 25 77 14 40 25 77 25 82 0 23 -31 1 -173 -125 -37 -33 -72
-57 -78 -55 -7 2 16 44 54 99 59 87 107 169 107 184 0 19 -38 -6 -119 -77
-121 -108 -173 -149 -179 -143 -3 2 6 22 20 42 35 54 40 73 23 79 -31 12 -217
-152 -248 -219 -17 -37 -32 -177 -20 -193 4 -7 41 -13 80 -16 87 -4 107 -18
68 -44 -20 -13 -45 -18 -85 -17 -50 2 -66 -3 -115 -33 -32 -19 -59 -33 -61
-31 -2 1 4 29 12 61 8 32 13 60 10 63 -3 3 -47 -23 -98 -57 -51 -34 -94 -57
-96 -51 -2 5 17 48 43 95 25 46 42 87 37 90 -5 3 -62 -35 -128 -85 -123 -93
-174 -126 -174 -111 0 14 51 80 122 157 111 123 132 167 55 113 -50 -34 -246
-201 -312 -265 -86 -84 -245 -261 -245 -273 0 -21 35 -23 99 -7 36 10 77 17
90 17 23 0 24 -2 18 -60 -6 -68 7 -79 41 -35 29 37 118 95 144 95 13 -1 34 -7
48 -14 22 -13 30 -11 73 11 32 16 58 22 73 19 13 -4 49 3 81 15 106 38 116 40
131 25 21 -21 3 -66 -75 -187 -70 -108 -112 -198 -113 -236 0 -28 8 -28 40 -3
33 26 44 25 75 -6 33 -33 65 -28 136 21 59 40 59 40 85 20 37 -28 67 -18 155
54 108 87 154 116 218 137 42 13 56 14 80 4 37 -15 47 -41 60 -158 14 -116 35
-166 56 -132 14 23 36 7 61 -42 47 -94 79 -112 110 -60 48 78 62 93 92 103 17
6 32 14 32 19 0 18 33 40 59 40 40 0 60 26 95 125 7 18 8 18 19 -5 9 -18 22
-26 45 -28 24 -3 45 -16 80 -53 26 -28 59 -57 74 -65 33 -17 120 -18 136 -2 8
8 12 48 12 115 0 90 3 106 20 123 23 23 27 78 5 86 -9 4 -12 15 -9 32 7 34
-19 73 -36 56 -6 -6 -14 -31 -17 -55 -7 -56 -27 -94 -58 -115 -35 -23 -49 -9
-96 91 -29 61 -38 73 -38 53 -1 -37 -18 -78 -33 -78 -6 0 -42 32 -79 70 -37
38 -71 70 -77 70 -19 0 -42 -43 -48 -92 -4 -27 -10 -51 -14 -53 -4 -3 -15 13
-24 34 -29 73 -54 64 -80 -30 -10 -33 -20 -59 -22 -56 -3 3 -12 56 -20 117 -8
62 -17 117 -20 122 -11 18 -25 -6 -51 -89 -33 -108 -41 -94 -42 74 -1 163 -5
169 -52 94 -21 -34 -41 -61 -45 -61 -3 0 -2 55 1 121 7 101 5 121 -6 117 -18
-6 -37 -44 -44 -89 -5 -35 -61 -126 -71 -116 -3 3 1 28 10 56 8 28 13 51 10
51 -3 0 -38 -29 -77 -65 -39 -36 -75 -65 -79 -65 -16 0 -7 32 26 98 18 37 37
83 40 102 l7 35 -21 -24 c-11 -13 -41 -63 -66 -110 -100 -188 -222 -347 -246
-323 -13 13 13 70 97 216 98 171 83 165 -83 -32 -143 -169 -175 -201 -180
-180 -5 24 38 116 89 192 23 34 84 104 135 157 56 56 98 107 103 125 9 36 44
45 61 15 6 -12 17 -21 24 -21 23 0 338 160 379 192 21 17 52 55 69 85 17 30
37 57 43 60 7 2 37 -9 66 -25 30 -16 59 -28 65 -25 6 2 39 -12 73 -32 34 -20
68 -34 75 -32 8 3 15 32 19 75 7 83 28 129 62 138 31 8 72 88 85 169 5 32 16
66 25 74 13 13 16 11 30 -22 8 -20 15 -45 15 -55 0 -10 6 -27 14 -37 14 -19
15 -19 27 8 7 15 16 27 20 27 4 0 15 -26 24 -57 37 -132 49 -169 58 -178 5 -6
6 0 2 15 -11 45 -9 262 4 419 7 84 11 154 9 156 -2 1 -32 -1 -68 -6 -57 -8
-69 -7 -100 10 -20 11 -41 17 -47 13z"/>
<path d="M8695 2813 c4 -560 8 -1019 9 -1019 0 -1 37 5 82 13 l81 15 6 441 c4
243 7 695 7 1005 l0 562 -96 0 -97 0 8 -1017z"/>
<path d="M6476 3804 c-12 -8 -16 -28 -16 -70 0 -55 2 -60 30 -76 33 -19 69
-86 70 -129 0 -25 4 -27 61 -33 33 -4 99 -6 146 -5 84 2 102 -5 103 -36 0 -6
-57 -9 -157 -8 l-158 3 -20 -32 c-11 -18 -35 -42 -52 -53 -25 -15 -32 -27 -33
-52 0 -27 5 -33 33 -42 41 -14 103 -76 118 -119 l11 -32 112 0 c78 0 118 -4
131 -13 15 -12 6 -15 -75 -20 -51 -4 -112 -7 -134 -7 -40 0 -41 -1 -61 -52
-15 -38 -32 -62 -65 -86 -35 -27 -46 -42 -48 -67 -2 -27 4 -35 35 -56 21 -13
47 -39 58 -57 l20 -33 133 5 c111 4 138 3 158 -10 13 -9 22 -20 19 -24 -3 -4
-60 -11 -127 -15 -146 -8 -158 -10 -158 -36 0 -33 -27 -74 -75 -117 -41 -36
-44 -41 -26 -47 20 -6 80 -67 98 -100 9 -16 30 -15 349 14 186 17 476 42 644
56 168 15 311 28 318 30 9 3 12 125 12 565 l0 560 -230 0 -230 0 0 -160 0
-160 185 0 185 0 0 -25 0 -25 -185 0 -185 0 0 -151 0 -152 118 7 c64 3 152 9
195 12 l77 7 0 -40 0 -40 -107 -6 c-58 -4 -146 -7 -195 -7 l-88 0 0 -150 0
-150 63 0 c34 0 112 7 172 15 153 21 145 22 145 -25 0 -36 -2 -39 -32 -44 -44
-7 -291 -24 -510 -36 -97 -5 -218 -14 -269 -20 -50 -6 -93 -9 -94 -8 -6 7 -25
534 -31 871 l-7 369 511 -4 512 -3 0 48 0 47 -90 0 c-79 0 -1001 24 -1257 33
-58 2 -97 -1 -107 -9z"/>
<path d="M8910 3063 c0 -417 -3 -863 -7 -992 l-6 -234 64 7 c35 4 65 8 66 10
1 1 5 444 9 984 l7 982 -66 0 -67 0 0 -757z"/>
<path d="M9060 2840 c0 -539 3 -980 8 -980 13 1 124 29 126 32 1 2 0 436 -2
966 l-4 962 -64 0 -64 0 0 -980z"/>
<path d="M9220 2854 l0 -966 23 5 c12 3 43 9 68 12 25 4 50 10 56 13 8 5 13
302 18 955 l8 947 -87 0 -86 0 0 -966z m123 54 c8 -12 7 -21 -2 -32 -18 -22
-38 -20 -51 5 -22 40 29 66 53 27z"/>
<path d="M8325 3688 c-4 -46 -5 -103 -3 -128 l3 -45 108 -3 c106 -3 107 -3
107 -27 0 -25 0 -25 -105 -25 l-105 0 0 -140 0 -140 115 0 c114 0 115 0 115
-23 0 -23 -3 -24 -117 -31 -64 -3 -119 -8 -121 -11 -2 -2 -1 -65 3 -141 l8
-136 123 7 124 7 0 -25 c0 -27 -4 -28 -205 -40 l-40 -2 -3 -137 -3 -137 100 4
c77 3 100 1 104 -10 9 -22 -2 -25 -82 -25 -131 0 -121 13 -121 -172 l0 -160
68 6 c37 4 91 9 120 12 43 5 52 4 52 -9 0 -19 -15 -24 -100 -32 -36 -3 -82 -8
-102 -11 l-38 -6 0 -144 c0 -167 -16 -151 133 -130 86 12 87 12 87 -9 0 -19
-11 -23 -110 -39 l-110 -18 0 -30 c0 -20 4 -29 13 -26 6 3 71 18 143 34 l131
28 6 185 c7 204 0 1522 -9 1699 l-6 112 -138 0 -138 0 -7 -82z"/>
<path d="M11276 3739 c-14 -11 -26 -27 -26 -35 0 -8 -9 -14 -20 -14 -18 0 -20
-7 -20 -73 0 -41 2 -76 5 -79 3 -3 17 -3 30 0 18 3 25 11 25 27 0 21 4 23 51
22 44 -2 54 2 75 26 33 39 31 81 -5 118 -35 35 -77 38 -115 8z"/>
<path d="M9440 3707 c0 -19 3 -75 6 -125 l7 -92 98 0 99 0 0 125 0 125 -105 0
-105 0 0 -33z"/>
<path d="M9970 3611 l0 -120 92 -3 c62 -2 93 -7 96 -15 3 -10 -20 -13 -92 -13
l-96 0 0 -131 0 -132 100 7 c87 6 100 5 100 -9 0 -12 -14 -15 -77 -15 -131 0
-123 8 -123 -140 l0 -127 100 5 c68 3 100 1 100 -6 0 -13 -42 -21 -130 -25
l-65 -2 -3 -122 -3 -123 43 6 c24 3 216 25 427 48 315 35 384 40 388 29 3 -8
4 -15 2 -17 -2 -2 -182 -23 -399 -45 -217 -23 -410 -43 -427 -46 l-33 -6 0
-124 c0 -104 2 -125 15 -125 12 0 333 44 753 104 74 10 92 10 92 0 0 -7 -4
-15 -8 -18 -5 -3 -198 -31 -430 -63 l-422 -57 0 -148 c0 -81 3 -148 8 -148 4
0 208 34 452 75 245 41 451 75 458 75 9 0 12 68 12 305 l0 305 -42 -1 c-24 0
-178 -13 -343 -28 -165 -16 -303 -26 -307 -24 -5 2 -8 214 -8 470 l0 466 351
-7 350 -7 -3 23 c-3 26 75 21 -680 43 l-248 7 0 -121z"/>
<path d="M6984 3418 c3 -112 9 -270 12 -351 l6 -149 187 7 c102 4 189 9 194
12 9 5 9 148 1 232 l-7 61 -163 0 c-135 0 -164 3 -164 14 0 8 -3 21 -6 30 -5
14 14 16 170 16 l176 0 -2 163 -3 162 -204 3 -203 2 6 -202z"/>
<path d="M10240 3496 l0 -127 137 3 138 3 -4 115 c-1 63 -4 117 -6 119 -2 2
-63 6 -134 9 l-131 5 0 -127z"/>
<path d="M10864 3612 c-20 -3 -21 -10 -27 -184 -4 -100 -7 -275 -7 -390 l0
-208 30 0 c17 0 33 6 36 13 3 8 1 184 -3 393 -8 377 -8 379 -29 376z"/>
<path d="M471 3575 c-21 -19 -44 -50 -51 -68 -25 -67 -37 -82 -125 -155 -232
-194 -274 -263 -160 -260 29 0 52 -6 73 -22 21 -16 38 -21 55 -16 14 3 80 11
148 16 103 9 135 16 191 42 64 29 70 30 113 18 62 -17 85 -10 198 59 108 65
137 88 137 107 0 15 -52 34 -95 34 -18 0 -44 9 -59 21 -15 12 -34 18 -43 15
-14 -6 -15 1 -9 61 3 38 9 82 13 98 6 27 -1 23 -78 -49 -46 -44 -106 -96 -134
-116 -116 -86 -112 -50 10 85 85 95 113 135 94 135 -26 0 -149 -82 -250 -165
-56 -47 -105 -83 -107 -80 -9 9 57 134 90 171 40 45 68 85 68 96 0 20 -44 5
-79 -27z"/>
<path d="M10550 3490 l0 -120 125 0 125 0 0 120 0 120 -125 0 -125 0 0 -120z"/>
<path d="M11262 3514 c-12 -8 -22 -22 -22 -30 0 -8 -7 -17 -15 -20 -12 -5 -15
-25 -15 -90 l0 -84 30 0 c28 0 30 3 30 36 0 34 2 36 27 31 88 -17 148 82 88
147 -28 31 -87 36 -123 10z"/>
<path d="M9450 3456 c-3 -2 -4 -63 -2 -135 l3 -132 102 3 102 3 3 90 c2 50 1
108 -3 131 l-6 40 -97 3 c-54 1 -100 0 -102 -3z"/>
<path d="M10638 3333 l-88 -4 0 -114 0 -115 125 0 125 0 0 120 0 120 -37 -2
c-21 -1 -77 -4 -125 -5z"/>
<path d="M2185 3308 c3 -13 22 -67 42 -121 30 -81 34 -100 22 -107 -17 -11
-50 18 -74 64 -16 31 -16 31 -11 -37 3 -38 13 -95 22 -128 28 -101 -14 -93
-57 10 -47 113 -52 105 -45 -79 l6 -165 -30 32 c-27 30 -39 63 -80 211 -17 67
-27 54 -92 -128 -9 -23 -16 -12 -74 108 -35 72 -68 132 -72 132 -5 0 -14 -18
-21 -41 -9 -31 -20 -44 -46 -55 -56 -23 -68 -99 -29 -176 8 -16 19 -28 23 -28
5 0 17 23 26 50 17 51 37 64 50 33 4 -10 13 -62 20 -116 14 -102 25 -127 57
-127 33 0 81 -26 136 -73 64 -54 88 -63 105 -36 6 10 16 19 22 19 6 0 37 -27
70 -60 33 -33 62 -60 66 -60 3 0 10 32 13 71 12 122 33 147 86 103 l30 -26 -6
34 c-4 18 -12 59 -20 91 -15 70 -11 86 27 94 16 3 26 10 23 15 -3 5 1 19 9 31
13 20 12 26 -9 57 -28 40 -30 79 -8 121 14 28 14 32 -6 63 -11 19 -27 39 -35
46 -9 7 -40 55 -71 106 -52 89 -83 121 -69 72z"/>
<path d="M10247 3209 c-4 -67 -5 -124 -3 -128 2 -3 46 -3 98 1 51 3 112 7 136
7 l42 1 0 120 0 120 -133 0 -134 0 -6 -121z"/>
<path d="M11277 3270 c-14 -11 -28 -34 -32 -50 -4 -17 -13 -30 -21 -30 -11 0
-14 -16 -14 -71 0 -61 2 -70 16 -65 9 3 22 6 30 6 8 0 14 10 14 25 0 22 4 25
36 25 66 0 103 33 104 92 0 28 -7 42 -31 62 -37 31 -67 33 -102 6z"/>
<path d="M9450 3093 c0 -38 -3 -98 -7 -135 l-6 -68 84 0 c138 0 129 -9 129
141 l0 129 -100 0 -100 0 0 -67z"/>
<path d="M10661 3069 c-56 -4 -104 -9 -106 -11 -1 -2 0 -59 3 -127 l5 -123 91
6 c50 4 106 10 124 13 l32 5 0 124 c0 122 0 124 -22 123 -13 -1 -70 -5 -127
-10z"/>
<path d="M10390 3053 c-153 -5 -140 8 -140 -141 l0 -127 97 6 c54 4 115 7 136
8 l37 1 0 130 c0 118 -2 130 -17 128 -10 -1 -61 -3 -113 -5z"/>
<path d="M11263 3035 c-12 -9 -25 -31 -29 -50 -3 -19 -10 -35 -15 -35 -5 0 -9
-34 -9 -75 0 -41 2 -75 4 -75 3 0 16 4 30 10 19 7 26 17 26 35 0 21 5 25 31
25 58 0 108 43 109 92 0 14 -12 40 -26 57 -20 24 -34 31 -63 31 -20 0 -46 -7
-58 -15z"/>
<path d="M7151 2857 l-153 -10 6 -45 c3 -25 6 -96 6 -159 l0 -114 43 5 c23 3
108 8 190 12 l147 6 -2 157 -3 156 -40 1 c-22 1 -109 -4 -194 -9z"/>
<path d="M9493 2853 l-43 -4 0 -123 0 -124 48 5 c26 2 71 6 100 9 l52 5 0 120
0 119 -57 -2 c-32 -1 -77 -3 -100 -5z"/>
<path d="M11261 2784 c-19 -16 -31 -35 -31 -50 0 -13 -4 -24 -10 -24 -6 0 -10
-32 -10 -76 0 -65 2 -75 16 -70 9 3 22 6 30 6 8 0 14 10 14 25 0 22 4 25 35
25 24 0 44 9 67 29 27 24 33 36 33 71 0 80 -82 116 -144 64z"/>
<path d="M9625 2584 c-11 -2 -55 -6 -97 -9 l-78 -7 0 -135 0 -136 63 7 c34 4
79 10 100 13 l37 6 0 133 c0 74 -1 133 -2 133 -2 -1 -12 -3 -23 -5z"/>
<path d="M11256 2539 c-14 -17 -26 -37 -26 -45 0 -8 -4 -14 -10 -14 -6 0 -10
-32 -10 -75 0 -41 2 -75 4 -75 24 0 56 23 56 40 0 16 7 20 30 20 93 0 144 91
85 154 -36 39 -94 37 -129 -5z"/>
<path d="M11283 2336 c-30 -14 -53 -42 -53 -65 0 -14 27 -14 106 1 49 9 64 15
64 29 0 37 -66 57 -117 35z"/>
<path d="M9523 2268 l-73 -10 0 -162 0 -163 100 20 100 20 0 153 0 154 -27 -1
c-16 -1 -61 -6 -100 -11z"/>
<path d="M11230 2211 c0 -20 28 -24 263 -37 133 -7 270 -15 305 -18 49 -4 62
-2 62 9 0 19 -23 22 -300 40 -273 18 -330 19 -330 6z"/>
<path d="M12202 2149 c4 -11 58 -18 224 -31 120 -9 233 -18 249 -20 22 -2 4
-10 -72 -32 -57 -16 -103 -34 -103 -40 1 -35 16 -35 158 1 140 35 142 36 142
63 l0 28 -107 6 c-192 12 -387 26 -442 32 -43 5 -53 4 -49 -7z"/>
<path d="M12360 1995 c-41 -13 -101 -31 -132 -40 -43 -12 -58 -21 -58 -34 0
-10 2 -20 5 -23 3 -2 69 11 147 31 138 35 143 37 146 64 4 34 -6 34 -108 2z"/>
<path d="M11220 1971 c0 -6 6 -13 13 -16 6 -2 168 -11 360 -20 237 -11 353
-13 365 -6 14 9 10 10 -18 11 -19 0 -125 7 -235 15 -345 25 -485 29 -485 16z"/>
<path d="M10026 1941 c7 -8 114 -19 305 -31 162 -10 329 -22 372 -25 51 -4 77
-2 77 5 0 6 -6 12 -12 15 -7 2 -141 11 -298 20 -157 8 -323 18 -370 22 -65 4
-82 3 -74 -6z"/>
<path d="M11976 1890 c-109 -28 -141 -40 -147 -56 -13 -33 -10 -36 31 -29 l40
7 0 -55 c0 -53 1 -56 29 -62 59 -13 91 -76 91 -181 l0 -76 -31 6 c-17 3 -40 6
-50 6 -17 0 -19 9 -19 85 0 52 -4 85 -10 85 -7 0 -10 -33 -8 -92 l3 -93 60 -8
c52 -7 68 -5 120 16 l60 25 7 54 c11 93 9 390 -3 383 -6 -4 -16 -1 -22 7 -10
12 -33 9 -151 -22z"/>
<path d="M12214 1879 l-31 -9 -6 -117 c-2 -65 -4 -119 -2 -121 2 -2 45 4 97
13 72 12 101 22 128 44 24 19 51 30 89 34 70 8 161 65 161 101 0 22 -4 23 -83
29 -46 4 -105 14 -133 22 -54 16 -171 18 -220 4z"/>
<path d="M11630 1800 c-140 -35 -145 -37 -142 -61 2 -13 5 -25 7 -27 3 -4 275
65 281 71 3 3 4 16 2 29 l-3 24 -145 -36z"/>
<path d="M9090 1786 c11 -10 79 -19 238 -31 207 -16 225 -16 240 -1 15 15 14
16 -8 16 -14 0 -115 7 -225 15 -257 19 -264 19 -245 1z"/>
<path d="M11805 1770 c-33 -10 -184 -53 -335 -95 -151 -42 -278 -80 -282 -83
-4 -4 -4 -78 -1 -165 l6 -158 45 7 c25 4 87 29 139 55 51 27 105 49 118 49 29
0 125 46 125 59 0 12 56 31 94 31 37 0 112 33 144 62 20 20 22 30 22 140 0 65
-3 118 -7 117 -5 0 -35 -9 -68 -19z"/>
<path d="M11283 1711 c-141 -35 -143 -36 -143 -63 0 -21 -5 -28 -20 -28 -13 0
-20 7 -20 20 0 17 -4 19 -27 13 -16 -3 -84 -21 -153 -38 l-125 -31 -3 -33 c-3
-32 -2 -33 26 -26 l30 6 7 -58 c4 -32 9 -66 11 -76 7 -23 62 -64 110 -80 l39
-14 3 -96 3 -97 -25 0 c-43 0 -104 29 -110 53 -3 12 -6 48 -6 80 0 44 -3 57
-15 57 -12 0 -15 -18 -15 -100 l0 -99 33 -5 c17 -3 56 -10 86 -15 47 -8 63 -5
122 17 l69 25 0 244 c0 243 0 243 23 252 12 5 72 21 132 36 61 16 114 32 119
36 4 4 4 18 0 31 l-9 24 -142 -35z"/>
<path d="M10040 1722 c0 -14 39 -18 468 -47 226 -15 371 -21 385 -15 21 8 21
9 2 9 -44 2 -715 51 -782 57 -50 5 -73 3 -73 -4z"/>
<path d="M8500 1650 c-14 -4 -20 -8 -14 -9 6 -1 212 -21 458 -46 247 -25 454
-45 462 -45 8 0 14 7 14 15 0 8 -7 15 -16 15 -9 0 -198 18 -420 40 -422 42
-443 43 -484 30z"/>
<path d="M10585 1526 c-66 -18 -132 -36 -147 -40 -24 -5 -28 -11 -28 -42 0
-29 3 -34 18 -30 81 24 286 76 297 76 10 0 15 11 15 35 0 43 2 43 -155 1z"/>
<path d="M8480 1507 c20 -18 1326 -155 1355 -142 26 11 -4 15 -495 65 -217 23
-500 52 -628 65 -128 14 -236 25 -240 25 -3 0 0 -6 8 -13z"/>
<path d="M10399 1375 c-224 -62 -410 -115 -415 -118 -8 -4 3 -407 11 -415 7
-7 175 84 175 95 0 19 39 35 66 29 16 -4 45 4 91 28 38 18 103 42 146 52 69
16 83 23 112 57 32 37 35 38 77 32 32 -5 54 -1 88 14 25 11 55 21 68 21 22 0
22 1 22 160 0 146 -2 160 -17 159 -10 -1 -201 -52 -424 -114z"/>
<path d="M10240 1439 c-234 -66 -210 -55 -210 -94 0 -21 5 -35 12 -35 7 0 81
19 165 41 l153 42 0 38 c0 22 -3 39 -7 38 -5 0 -55 -14 -113 -30z"/>
<path d="M7262 1432 c-7 -5 84 -22 220 -42 128 -18 240 -35 248 -38 12 -4 11
-1 -2 13 -13 14 -62 25 -205 47 -200 29 -240 33 -261 20z"/>
<path d="M8330 1396 c0 -10 9 -16 23 -16 12 -1 260 -29 551 -64 429 -50 529
-60 533 -49 9 23 68 15 -612 88 -231 25 -437 48 -457 51 -31 5 -38 3 -38 -10z"/>
<path d="M9835 1328 c-77 -20 -150 -39 -162 -43 -16 -4 -23 -14 -25 -38 -4
-39 -32 -44 -36 -7 l-3 26 -169 -46 -170 -45 0 -41 0 -41 173 47 172 46 5 -77
5 -78 54 -38 c91 -64 96 -75 92 -211 -1 -64 -4 -118 -6 -120 -1 -2 -18 3 -37
11 -55 23 -74 56 -81 138 -3 40 -11 77 -17 83 -7 7 -10 -30 -10 -120 l0 -130
74 -24 75 -23 95 43 95 43 -6 297 -6 298 21 7 c22 6 28 34 14 65 -6 14 -26 11
-147 -22z"/>
<path d="M8340 1279 c0 -4 5 -11 12 -15 21 -13 713 -102 722 -93 5 5 8 10 5
12 -2 2 -96 16 -209 31 -113 15 -278 38 -367 50 -90 12 -163 19 -163 15z"/>
<path d="M6655 1270 c-11 -5 -18 -9 -15 -9 3 -1 259 -46 570 -101 310 -55 565
-98 567 -97 1 2 -3 11 -10 21 -11 15 -108 34 -506 102 -552 94 -578 97 -606
84z"/>
<path d="M9047 1116 c-86 -24 -160 -45 -163 -48 -3 -3 -4 -24 -2 -45 l3 -40
165 47 165 47 3 41 c2 23 0 42 -5 41 -4 0 -79 -20 -166 -43z"/>
<path d="M9415 1110 c-93 -26 -366 -103 -605 -170 -239 -67 -450 -127 -467
-132 l-33 -9 0 -203 c0 -112 -3 -218 -6 -235 l-6 -31 107 0 108 0 108 65 c70
42 118 65 138 65 50 0 163 51 180 82 13 23 23 27 71 30 30 2 125 23 210 47
122 34 159 48 173 67 13 16 29 24 50 24 49 1 141 60 148 96 9 42 10 354 2 353
-5 0 -84 -22 -178 -49z"/>
<path d="M8337 1125 c-4 -8 -3 -16 1 -18 4 -3 95 -17 202 -32 107 -15 202 -29
210 -32 8 -3 -32 -17 -90 -33 -193 -51 -175 -42 -174 -84 1 -20 4 -39 6 -42 5
-4 92 18 286 72 l53 15 -3 47 -3 46 -220 38 c-253 42 -261 43 -268 23z"/>
</g>
</svg>
